<svg xmlns="http://www.w3.org/2000/svg" height="1100" width="1500" version="1.1" xmlns:xlink="http://www.w3.org/1999/xlink" xmlns:svgjs="http://svgjs.com/svgjs"><g><path d="M1255.78 891.96C1256.94 904.71 1264 926.93 1288.22 929.88 1312.35 932.83 1322.77 926.72 1345.1 939.05 1364.49 949.69 1369.54 978.97 1369.54 978.97L1317.4 1004.04C1317.4 1004.04 1312.66 983.6 1298.44 976.12 1273.27 962.96 1249.57 978.76 1224.81 958.85 1205.96 943.68 1203.64 918.09 1203.64 918.09L1255.78 891.96Z" fill="#ffffff" opacity="1" stroke-width="4" stroke="#000000"></path></g><g><path d="M316.35 213.7L423.47 291.53C423.86 291.13 424.05 290.16 423.86 289.38L387.34 166.93 318.3 199.93C317.52 200.22 315.76 213.11 316.35 213.7Z" fill="#9ebbff" opacity="1" stroke-width="4" stroke="#000000"></path><path d="M423.17 291.62L310.39 235.48C310.1 235.28 309.9 234.99 310 234.6L317.71 200.42C317.81 199.83 318.49 199.64 318.98 200.03L423.56 291.13C423.76 291.43 423.47 291.82 423.17 291.62Z" fill="#221f1f" opacity="1" stroke-width="4" stroke="#000000"></path></g><g><path d="M598.69 251.71H1058.99C1077.71 251.71 1092.76 273.59 1092.76 300.62L1092.76 806.92C1092.76 833.94 1077.6 855.66 1058.99 855.66H598.69C579.96 855.66 564.8 833.78 564.8 806.92L564.8 300.62C564.91 273.59 579.96 251.71 598.69 251.71Z" fill="#221f1f00" opacity="0" stroke-width="4" stroke="#ffffff00"></path><path d="M581.97 227.58H1042.26C1060.99 227.58 1076.04 249.46 1076.04 276.48L1076.04 782.78C1076.04 809.81 1060.88 831.53 1042.26 831.53H581.97C563.24 831.53 548.08 809.65 548.08 782.78L548.08 276.48C548.19 249.46 563.24 227.58 581.97 227.58Z" fill="#ffffff" opacity="1" stroke-width="4" stroke="#000000"></path><path d="M622.99 290.16H768.47C777.06 290.16 784.08 300.29 784.08 312.68V313.65C784.08 326.04 777.06 336.17 768.47 336.17H622.99C614.41 336.17 607.39 326.04 607.39 313.65V312.68C607.39 300.29 614.41 290.16 622.99 290.16Z" fill="#ff4f32" opacity="1" stroke-width="4" stroke="#000000"></path><path d="M982.18 290.16H1076.04V336.17H982.18C973.59 336.17 966.57 326.04 966.57 313.65V312.68C966.57 300.29 973.59 290.16 982.18 290.16Z" fill="#ff4f32" opacity="1" stroke-width="4" stroke="#000000"></path><path d="M745.06 504.94H793.67C802.25 504.94 809.27 515.07 809.27 527.46V528.43C809.27 540.81 802.25 550.95 793.67 550.95H745.06C736.48 550.95 729.46 540.81 729.46 528.43V527.46C729.46 514.91 736.48 504.94 745.06 504.94Z" fill="#42aee0" opacity="1" stroke-width="4" stroke="#000000"></path><path d="M697.13 719.72H745.73C754.32 719.72 761.34 729.85 761.34 742.24V743.21C761.34 755.59 754.32 765.73 745.73 765.73H697.13C688.54 765.73 681.52 755.59 681.52 743.21V742.24C681.52 729.69 688.54 719.72 697.13 719.72Z" fill="#ff4f32" opacity="1" stroke-width="4" stroke="#000000"></path><path d="M803.25 719.72H897.45C906.04 719.72 913.06 729.85 913.06 742.24V743.21C913.06 755.59 906.04 765.73 897.45 765.73H803.25C794.67 765.73 787.65 755.59 787.65 743.21V742.24C787.65 729.69 794.56 719.72 803.25 719.72Z" fill="#ff4f32" opacity="1" stroke-width="4" stroke="#000000"></path><path d="M745.06 612.25H911.05C919.64 612.25 926.66 622.38 926.66 634.77V635.74C926.66 648.12 919.64 658.26 911.05 658.26H745.06C736.48 658.26 729.46 648.12 729.46 635.74V634.77C729.46 622.38 736.48 612.25 745.06 612.25Z" fill="#9ebbff" opacity="1" stroke-width="4" stroke="#000000"></path><path d="M622.99 397.47H768.47C777.06 397.47 784.08 407.6 784.08 419.99V420.96C784.08 433.34 777.06 443.48 768.47 443.48H622.99C614.41 443.48 607.39 433.34 607.39 420.96V419.99C607.39 407.6 614.41 397.47 622.99 397.47Z" fill="#9ebbff" opacity="1" stroke-width="4" stroke="#000000"></path><path d="M845.39 397.15H919.08C927.66 397.15 934.69 407.28 934.69 419.67V420.64C934.69 433.02 927.66 443.16 919.08 443.16H845.39C836.81 443.16 829.79 433.02 829.79 420.64V419.67C829.79 407.12 836.81 397.15 845.39 397.15Z" fill="#9ebbff" opacity="1" stroke-width="4" stroke="#000000"></path><path d="M581.97 227.58H645.07L645.07 831.53H581.97C563.24 831.53 548.08 809.65 548.08 782.78L548.08 276.48C548.08 249.46 563.24 227.58 581.97 227.58Z" fill="#ffffff" opacity="1" stroke-width="4" stroke="#000000"></path><path d="M581.97 227.58H645.07L645.07 831.53H581.97C563.24 831.53 548.08 809.65 548.08 782.78L548.08 276.48C548.08 249.46 563.24 227.58 581.97 227.58Z" fill="#d2d2d2" opacity="0.2" stroke-width="4" stroke="#000000"></path><path d="M1076.04 365.93H646.18" stroke="#000000" stroke-width="4" stroke-linejoin="round" opacity="1" fill="none"></path><path d="M1076.04 474.53H646.18" stroke="#000000" stroke-width="4" stroke-linejoin="round" opacity="1" fill="none"></path><path d="M1076.04 584.74H646.18" stroke="#000000" stroke-width="4" stroke-linejoin="round" opacity="1" fill="none"></path><path d="M1076.04 688.34H646.18" stroke="#000000" stroke-width="4" stroke-linejoin="round" opacity="1" fill="none"></path><path d="M645.07 227.58L645.07 831.53" stroke="#000000" stroke-width="4" stroke-linejoin="round" opacity="1" fill="none"></path><path d="M585.76 313.17H607.39" stroke="#000000" stroke-width="4" stroke-linecap="round" stroke-linejoin="round" opacity="1" fill="none"></path><path d="M585.76 420.15H607.39" stroke="#000000" stroke-width="4" stroke-linecap="round" stroke-linejoin="round" opacity="1" fill="none"></path><path d="M585.76 527.14H607.39" stroke="#000000" stroke-width="4" stroke-linecap="round" stroke-linejoin="round" opacity="1" fill="none"></path><path d="M585.76 635.74H607.39" stroke="#000000" stroke-width="4" stroke-linecap="round" stroke-linejoin="round" opacity="1" fill="none"></path><path d="M585.76 742.72H607.39" stroke="#000000" stroke-width="4" stroke-linecap="round" stroke-linejoin="round" opacity="1" fill="none"></path></g><g><path d="M269.38 364.61L258.07 450.47C258.3 451.25 259.58 452.15 260.19 451.89L400.32 397.66C400.69 397.5 400.65 396.94 400.28 396.85L271.75 362.99C271.21 362.78 269.49 363.12 269.38 364.61Z" fill="#ff4f32" opacity="1" stroke-width="4" stroke="#000000"></path><path d="M270.5 364.02L259.12 450.35C259.06 450.91 258.27 451.05 258.07 450.47L236.41 397.1 269.73 363.64C270.03 363.33 270.57 363.55 270.5 364.02Z" fill="#221f1f" opacity="1" stroke-width="4" stroke="#000000"></path></g><g><path d="M309.97 829.4C336.06 829.4 357.24 808.22 357.24 782.13 357.24 756.03 336.06 734.86 309.97 734.86 283.88 734.86 262.7 756.03 262.7 782.13 262.7 808.22 283.88 829.4 309.97 829.4Z" fill="#ffffff" opacity="1" stroke-width="4" stroke="#000000"></path></g><g><path d="M437.82 941.54L442.42 926.99C441.11 920.61 440.08 918.82 446.46 917.51 447.21 917.32 446.84 910.38 447.68 910.38L468.8 900.52 471.9 897.98C472.56 889.82 473.5 881.84 475.09 873.76V873.67L435.66 813.77 394.73 873.67V873.76C394.83 891.97 396.14 909.91 398.3 927.93L405.06 934.13 437.82 941.54Z" fill="#9f5a41" opacity="1" stroke-width="4" stroke="#000000"></path><path d="M573.39 930.65L568.6 911.97C567.28 905.59 567.94 901.64 574.33 900.33 575.08 900.14 575.92 900.14 576.67 900.14L604.09 900.05 603.99 897.89C603.8 891.41 603.62 886.25 604.27 876.11L601.74 869.44 529.45 868.88C529.36 868.88 527.85 872.45 527.85 872.54L526.73 874.79C527.29 893.01 529.45 910.94 532.17 928.96L573.39 930.65Z" fill="#9f5a41" opacity="1" stroke-width="4" stroke="#000000"></path><path d="M645.77 960.79L646.24 958.82C642.58 951.68 637.04 948.77 629.62 943.14 625.58 940.04 620.89 936.57 615.54 931.97 613.19 930 611.13 927.56 609.63 924.74 606.06 918.45 604.27 910 603.9 898.08L576.58 897.89C569.82 897.89 564.37 903.33 564.37 910.09 564.37 910.94 564.47 911.78 564.66 912.53L567.85 927.84H531.89V928.02C533.49 938.54 536.12 952.9 537.15 958.25 537.34 959.38 538.56 959.94 538.56 960.23 538.56 960.32 538.46 960.23 538.56 960.23L645.77 960.79Z" fill="#42aee0" opacity="1" stroke-width="4" stroke="#000000"></path><path d="M512.65 961.35C512.74 961.35 512.83 961.26 512.83 961.07L510.77 957.22C506.64 950.46 502.69 949.34 494.9 943.23 490.77 940.04 486.17 936.38 480.91 931.87 478.47 929.81 476.5 927.18 475.09 924.27 472.18 918.07 471.24 909.53 472 898.08V897.89H445.15C438.39 897.89 432.94 903.33 432.94 910.09 432.94 910.94 433.04 911.78 433.22 912.53L436.41 927.84H398.49V928.02C399.71 938.35 400.83 947.08 402.52 957.32L403.09 960.7 512.65 961.35Z" fill="#42aee0" opacity="1" stroke-width="4" stroke="#000000"></path><path d="M532.83 402.2L532.92 396.85C535.55 397.6 537.81 397.69 540.43 397.69 549.17 397.69 556.49 393.94 560.62 387.36 565.88 378.92 563.62 369.34 561.37 360.05 561.18 359.2 560.99 358.36 560.81 357.51 560.06 353.38 559.49 349.25 559.21 345.12 558.27 334.7 557.05 321.74 551.61 314.33 543.06 302.87 529.64 309.07 511.52 309.07 510.11 309.07 507.01 304.84 505.61 304.94 484.76 306.06 473.78 315.08 474.44 335.07 474.81 347.09 470.4 372.53 472.75 402.2L473.03 403.51 497.63 412.06 532.83 402.2Z" fill="#9f5a41" opacity="1" stroke-width="4" stroke="#000000"></path><path d="M497.81 379.85L498 379.67 497.81 379.57C497.63 379.48 477.72 367.56 481.38 356.57 482.89 351.97 486.73 349.72 492.74 349.72 496.97 349.91 500.72 350.38 505.14 352.16L505.32 352.25 505.42 351.69C506.73 345.21 505.7 340.8 503.82 335.92 503.54 335.26 504.1 334.51 504.85 334.6 506.26 334.7 507.67 334.79 509.08 334.89 517.72 334.89 521.1 331.69 522.41 329.06 523.82 326.34 523.54 322.87 521.85 319.49 521.47 318.74 522.22 317.8 523.07 318.08 530.48 320.33 536.96 321.55 542.31 321.55 551.04 321.55 553.95 318.55 553.95 318.55 553.39 317.24 552.36 315.55 551.51 314.42 542.97 302.97 528.23 296.68 510.11 296.68 508.7 296.68 507.29 296.68 505.89 296.77 485.05 297.9 468.52 314.98 469.18 334.98 469.37 345.96 470.59 366.15 472.28 394.41 472.28 394.31 487.39 391.03 497.81 379.85Z" fill="#231f20" opacity="1" stroke-width="4" stroke="#000000"></path><path d="M532.92 396.85C528.51 395.25 522.79 392.72 518.75 390.27" stroke="#000000" stroke-width="4" stroke-linecap="round" stroke-linejoin="round" opacity="1" fill="none"></path><path d="M502.98 366.34L495.56 363.33" stroke="#000000" stroke-width="4" stroke-linecap="round" stroke-linejoin="round" opacity="1" fill="none"></path><path d="M541.56 354.41L542.12 356.48C542.5 357.7 542.12 358.92 541.19 359.76L541 359.95" stroke="#000000" stroke-width="4" stroke-linecap="round" stroke-linejoin="round" opacity="1" fill="none"></path><path d="M543.63 369.25C542.31 370.18 537.9 370.37 535.27 367.18" stroke="#000000" stroke-width="4" stroke-linecap="round" stroke-linejoin="round" opacity="1" fill="none"></path><path d="M528.79 352.82C527.44 352.82 526.35 351.73 526.35 350.38 526.35 349.03 527.44 347.93 528.79 347.93 530.15 347.93 531.23 349.03 531.23 350.38 531.23 351.73 530.15 352.82 528.79 352.82Z" fill="#231f20" opacity="1" stroke-width="4" stroke="#000000"></path><path d="M549.73 349.72C548.38 349.72 547.29 348.63 547.29 347.28 547.29 345.93 548.38 344.84 549.73 344.84 551.08 344.84 552.17 345.93 552.17 347.28 552.17 348.63 551.08 349.72 549.73 349.72Z" fill="#231f20" opacity="1" stroke-width="4" stroke="#000000"></path><path d="M680.69 456.93C682.2 452.8 683.13 450.64 684.35 447.54 686.33 442.85 688.95 436.46 695.71 418.44 698.81 412.24 701.72 406.89 704.35 402.2 709.7 392.53 712.89 386.71 711.11 384.83 710.64 384.36 710.08 384.08 709.33 384.08 706.7 384.08 705.29 385.58 698.81 392.34 697.87 393.37 695.15 396.19 693.46 397.88 693.27 398.07 692.99 397.88 693.09 397.6 694.12 395.34 696 391.4 696.84 389.62 700.5 381.92 703.88 374.97 701.44 369.9 700.78 368.59 699.56 367.65 698.15 367.37 698.06 363.14 696.09 360.61 692.8 360.61 691.3 360.7 689.89 361.08 688.58 361.74 687.45 360.98 686.14 360.61 684.82 360.61 677.03 360.61 668.96 373.75 661.82 385.3 658.44 390.74 655.35 395.91 652.72 398.54 652.43 385.39 649.9 377.6 645.96 377.6 645.49 377.6 645.11 377.69 644.74 377.88 641.73 379.01 640.14 386.99 638.35 396.28 637.98 398.25 637.51 400.32 637.13 402.39 636.38 406.05 635.72 409.24 635.16 412.06 633.28 420.6 632.06 426.33 633 434.02 630 441.63 627.09 449.51 624.46 456.37L623.99 457.68 680.69 456.93Z" fill="#9f5a41" opacity="1" stroke-width="4" stroke="#000000"></path><path d="M652.72 398.54V407.55C652.72 407.55 662.39 417.41 660.7 431.3" stroke="#000000" stroke-width="4" stroke-linecap="round" stroke-linejoin="round" opacity="1" fill="none"></path><path d="M687.92 361.92C677.78 375.54 669.43 392.53 669.43 392.53" stroke="#000000" stroke-width="4" stroke-linecap="round" stroke-linejoin="round" opacity="1" fill="none"></path><path d="M698.06 367.37C693.55 373 679.57 397.97 679.57 397.97" stroke="#000000" stroke-width="4" stroke-linecap="round" stroke-linejoin="round" opacity="1" fill="none"></path><path d="M395.01 863.9C395.39 853.67 396.23 843.34 397.83 833.21 400.65 814.71 405.06 798.94 409 785.04 412.85 771.15 416.23 759.23 417.54 747.02 419.61 726.74 418.2 706.56 416.7 685.15 413.51 639.43 410.13 592.12 442.99 541.8L443.08 541.7H462.51 521.28 545.88L545.97 541.8C546.54 542.83 602.21 644.88 608.12 753.78 609.44 780.26 609.06 806.82 607.18 833.21 606.71 840.53 606.25 847.47 605.78 854.14 605.31 861.09 604.74 867.38 604.37 873.48V873.95L527.48 874.23C528.7 874.14 527.48 874.32 527.48 874.23L526.73 873.57C526.82 868.5 526.82 863.72 527.01 858.74 527.39 847.76 527.76 839.87 528.32 833.3 529.17 822.69 530.2 814.8 531.14 807.76 532.83 794.24 534.14 784.48 532.27 767.39 530.3 749.84 519.31 725.71 506.54 697.92 506.26 697.92 506.36 697.92 506.07 698.02 504.1 714.92 501.94 732.47 499.69 750.21 495.56 781.85 488.99 811.61 484.11 833.39L482.89 838.84C480.07 851.32 477.35 863.25 475.28 873.76L474.81 876.11C474.81 876.2 474.72 876.3 474.62 876.3L394.92 874.04V873.67C394.83 870.38 394.92 866.91 395.01 863.9Z" fill="#ff9900" opacity="1" stroke-width="4" stroke="#000000"></path><path d="M693.18 397.88L689.14 404.26" stroke="#000000" stroke-width="4" stroke-linecap="round" stroke-linejoin="round" opacity="1" fill="none"></path><path d="M545.22 874.23L545.32 873.67C545.69 867.57 546.16 861.09 546.63 854.14 547.1 847.47 547.57 840.53 548.04 833.21 549.45 811.52 551.23 784.48 548.98 753.78 547.95 739.7 539.68 698.2 523.82 627.04 522.6 621.69 518.75 619.34 514.9 619.34 514.24 619.53 509.74 677.08 506.17 697.08 519.03 725.15 530.2 749.46 532.17 767.21 534.05 784.29 532.74 794.06 531.05 807.58 530.11 814.62 529.08 822.5 528.23 833.11 527.67 839.68 527.29 847.57 526.92 858.55 526.73 863.53 526.92 867.28 526.63 872.35L526.73 873.57C526.73 873.67 526.82 874.32 526.82 874.32L545.22 874.23Z" fill="#ff990000" opacity="0" stroke-width="4" stroke="#ffffff00"></path><path d="M420.17 595.4C475.56 580.38 496.12 568.74 521.1 552.78L521.19 552.69 521.28 541.7H443.08L442.99 541.8C432.19 558.04 424.4 576.16 419.89 595.12L419.8 595.4H420.17Z" fill="#ff990000" opacity="0" stroke-width="4" stroke="#ffffff00"></path><path d="M515.09 617.47C512.83 640.75 509.27 670.6 505.79 699.99" stroke="#000000" stroke-width="4" stroke-linecap="round" stroke-linejoin="round" opacity="1" fill="none"></path><path d="M532.45 403.42V396.66L530.67 396.19C525.88 394.78 522.69 393.37 518.09 391.31L517.81 391.87 523.63 407.46 532.45 403.42Z" fill="#9f5a4100" opacity="0" stroke-width="4" stroke="#ffffff00"></path><path d="M438.39 566.58C451.15 566.58 465.8 564.89 482.32 561.14L482.89 560.29 481.57 542.08H546.07L556.86 502.27C558.84 505.28 573.86 526.5 599.02 535.79 605.59 538.42 612.63 539.73 619.67 539.92 654.31 539.92 669.99 498.14 681.82 454.02L630.94 439.66 616.95 473.27C615.73 471.58 608.4 461.62 595.54 445.48 571.32 413.09 535.74 409.9 532.83 409.71V402.2H472.75L473.12 407.92C452.94 410.93 434.91 422.01 422.99 438.53 422.52 439.19 372.58 506.03 390.79 546.49 396.33 559.26 413.79 566.58 438.39 566.58Z" fill="#42aee0" opacity="1" stroke-width="4" stroke="#000000"></path><path d="M556.86 502.27L560.43 486.88" stroke="#000000" stroke-width="4" stroke-linecap="round" stroke-linejoin="round" opacity="1" fill="none"></path><path d="M567.85 514.95C567.85 514.85 565.31 507.34 565.31 492.51 565.31 483.87 565.31 478.24 562.31 478.24H562.12L556.39 501.9V501.99C559.59 506.69 563.34 511.1 567.38 515.14L567.85 514.95Z" fill="#42aee000" opacity="0" stroke-width="4" stroke="#ffffff00"></path><path d="M459.42 493.17L450.68 514.95" stroke="#000000" stroke-width="4" stroke-linecap="round" stroke-linejoin="round" opacity="1" fill="none"></path><path d="M607.56 924.74L595.17 930" stroke="#000000" stroke-width="4" stroke-linecap="round" stroke-linejoin="round" opacity="1" fill="none"></path><path d="M616.1 934.69L605.68 943.05" stroke="#000000" stroke-width="4" stroke-linecap="round" stroke-linejoin="round" opacity="1" fill="none"></path><path d="M473.4 925.11L461.86 930" stroke="#000000" stroke-width="4" stroke-linecap="round" stroke-linejoin="round" opacity="1" fill="none"></path><path d="M481.95 935.35L472.37 943.05" stroke="#000000" stroke-width="4" stroke-linecap="round" stroke-linejoin="round" opacity="1" fill="none"></path><path d="M474.72 876.2L395.2 873.67" stroke="#000000" stroke-width="4" stroke-linecap="round" stroke-linejoin="round" opacity="1" fill="none"></path><path d="M603.62 873.67L526.73 874.04" stroke="#000000" stroke-width="4" stroke-linecap="round" stroke-linejoin="round" opacity="1" fill="none"></path><path d="M607.37 833.3H528.51" stroke="#000000" stroke-width="4" stroke-linecap="round" stroke-linejoin="round" opacity="1" fill="none"></path><path d="M483.45 833.3H398.02" stroke="#000000" stroke-width="4" stroke-linecap="round" stroke-linejoin="round" opacity="1" fill="none"></path><path d="M554.61 587.8C554.7 587.8 554.7 587.8 554.8 587.8 555.64 587.71 556.49 587.14 556.77 586.3 557.99 583.29 555.17 576.25 549.54 568.18 550.57 568.84 551.61 569.59 552.64 570.34 559.02 574.84 567 580.48 573.2 580.48 575.73 580.57 578.08 579.35 579.58 577.38 581.84 577.38 583.53 576.63 584.56 575.31 585.69 573.81 585.78 571.56 584.93 569.02 586.06 567.05 586.06 564.52 585.03 561.51 582.96 555.51 576.39 547.34 567.1 539.17 558.55 531.75 549.35 525.56 542.88 523.12 525.98 516.73 499.13 515.04 479.6 514.85H479.41L482.32 561.14C482.32 561.14 493.96 558.42 500.91 556.54 501.85 557.01 513.02 562.64 530.77 565.46 540.81 579.07 551.61 587.8 554.61 587.8Z" fill="#9f5a41" opacity="1" stroke-width="4" stroke="#000000"></path><path d="M465.89 515.23L465.8 514.95C462.7 507.81 467.3 503.31 467.21 496.45 467.11 488.76 465.99 486.88 461.86 486.22L450.68 514.95 465.89 515.23Z" fill="#42aee000" opacity="0" stroke-width="4" stroke="#ffffff00"></path><path d="M650.09 973.46V973.28C650.09 967.45 648.96 963.04 646.33 958.91L646.24 958.82 537.24 958.16C537.15 958.16 537.15 958.25 537.15 958.35 537.52 959.85 540.15 972.99 540.34 973.37L650.09 973.46Z" fill="#0b0e0f" opacity="1" stroke-width="4" stroke="#000000"></path><path d="M515.27 973.46V973.28C515.27 967.45 514.15 963.04 511.52 958.91L511.43 958.82H402.71V959.01C404.31 967.83 405.25 972.62 405.43 973.28L515.27 973.46Z" fill="#0b0e0f" opacity="1" stroke-width="4" stroke="#000000"></path><path d="M584.75 568.18C578.74 561.42 565.31 549.5 555.55 542.74" stroke="#000000" stroke-width="4" stroke-linecap="round" stroke-linejoin="round" opacity="1" fill="none"></path><path d="M579.49 577.1C574.98 572.59 560.06 559.92 548.04 551.66" stroke="#000000" stroke-width="4" stroke-linecap="round" stroke-linejoin="round" opacity="1" fill="none"></path><path d="M549.17 567.62L540.53 560.67" stroke="#000000" stroke-width="4" stroke-linecap="round" stroke-linejoin="round" opacity="1" fill="none"></path><path d="M616.76 473.73L617.7 485" stroke="#000000" stroke-width="4" stroke-linecap="round" stroke-linejoin="round" opacity="1" fill="none"></path><path d="M479.79 514.85C470.02 514.85 452.94 514.95 440.92 515.7" stroke="#000000" stroke-width="4" stroke-linecap="round" stroke-linejoin="round" opacity="1" fill="none"></path></g><g><path d="M945.45 627.34H1204.54C1223.86 627.34 1239.49 642.97 1239.49 662.29V897.84C1239.49 917.16 1223.86 932.79 1204.54 932.79H945.45C926.13 932.79 910.5 917.16 910.5 897.84V662.29C910.56 642.97 926.19 627.34 945.45 627.34Z" fill="#ff990000" opacity="0" stroke-width="4" stroke="#ffffff00"></path><path d="M957.52 615.27H1216.61C1235.93 615.27 1251.56 630.9 1251.56 650.22V885.77C1251.56 905.09 1235.93 920.72 1216.61 920.72H957.52C938.2 920.72 922.57 905.09 922.57 885.77V650.22C922.63 630.9 938.26 615.27 957.52 615.27Z" fill="#ff9900" opacity="1" stroke-width="4" stroke="#000000"></path><path d="M1034.89 847.63H1202.67C1214.68 847.63 1224.4 857.35 1224.4 869.36 1224.4 881.37 1214.68 891.09 1202.67 891.09H1013.16V869.36C1013.16 857.35 1022.88 847.63 1034.89 847.63Z" fill="#ffffff" opacity="1" stroke-width="4" stroke="#000000"></path><path d="M971.52 847.63C983.53 847.63 993.25 857.35 993.25 869.36 993.25 881.37 983.53 891.09 971.52 891.09 959.51 891.09 949.79 881.37 949.79 869.36 949.79 857.35 959.51 847.63 971.52 847.63Z" fill="#ff4f32" opacity="1" stroke-width="4" stroke="#000000"></path><path d="M971.52 642.43H1202.67C1214.68 642.43 1224.4 652.15 1224.4 664.16V802.97C1224.4 814.98 1214.68 824.7 1202.67 824.7H971.52C959.51 824.7 949.79 814.98 949.79 802.97V664.16C949.79 652.15 959.51 642.43 971.52 642.43Z" fill="#ffffff" opacity="1" stroke-width="4" stroke="#000000"></path><path d="M980.57 794.52H1190.6" stroke="#000000" stroke-width="4" stroke-linecap="round" stroke-linejoin="round" opacity="1" fill="none"></path><path d="M1024.33 807.19C1031.16 807.19 1036.7 801.66 1036.7 794.82 1036.7 787.99 1031.16 782.45 1024.33 782.45 1017.5 782.45 1011.96 787.99 1011.96 794.82 1011.96 801.66 1017.5 807.19 1024.33 807.19Z" fill="#221f1f" opacity="1" stroke-width="4" stroke="#000000"></path><path d="M1106.77 713.1L1074.84 691.98C1072.37 690.35 1069.05 691.01 1067.42 693.49 1066.82 694.39 1066.52 695.42 1066.52 696.45V738.63C1066.52 741.59 1068.93 744 1071.89 744 1072.91 744 1074 743.7 1074.84 743.1L1106.77 721.98C1109.25 720.35 1109.85 716.97 1108.22 714.55 1107.8 713.95 1107.31 713.47 1106.77 713.1Z" fill="#ff4f32" opacity="1" stroke-width="4" stroke="#000000"></path></g><g><path d="M1131.79 489.48C1241.92 475.32 1333.71 354.44 1290.88 347.79 1249.68 341.39 1166.51 458.43 1228.27 472.84 1267.68 482.06 1337.03 438.89 1337.03 438.89" stroke="#000000" stroke-width="4" stroke-linecap="round" stroke-linejoin="round" opacity="1" fill="none"></path><path d="M1371.5 427.38L1275.7 445.29 1317.84 463.72 1319.2 509.61 1371.5 427.38Z" fill="#9ebbff00" opacity="0" stroke-width="4" stroke="#ffffff00"></path><path d="M1366.97 415.18L1271.18 433.09 1313.32 451.52 1314.68 497.41 1366.97 415.18Z" fill="#9ebbff" opacity="1" stroke-width="4" stroke="#000000"></path></g></svg>