<svg xmlns="http://www.w3.org/2000/svg" height="1100" width="1500" version="1.1" xmlns:xlink="http://www.w3.org/1999/xlink" xmlns:svgjs="http://svgjs.com/svgjs"><g><path d="M747.06 729.55H633.98C610.83 729.55 592.1 748.37 592.1 771.66V899.97C592.1 923.26 610.83 942.09 633.98 942.09H847.32C855.45 942.09 861.86 935.4 861.86 927.47 861.86 919.3 855.45 912.61 847.32 912.61 847.32 912.61 847.32 912.61 847.08 912.61H788.45V771.66C788.69 748.37 769.97 729.55 747.06 729.55Z" fill="#ff9900" opacity="1" stroke-width="4" stroke="#000000"></path><path d="M747.06 727.32H633.98C610.83 727.32 592.1 746.14 592.1 769.43V879.91L788.45 831.85V769.43C788.69 746.14 769.97 727.32 747.06 727.32Z" fill="#ff990000" opacity="0" stroke-width="4" stroke="#ffffff00"></path><path d="M346 304.47L895.36 304.47C931.33 304.47 965.82 333.7 971.98 370.11L1039.48 754.56C1045.89 790.73 1021.74 820.21 985.78 820.21H436.41C400.44 820.21 365.95 790.98 359.79 754.56L292.29 370.11C285.89 333.7 310.03 304.47 346 304.47Z" fill="#ff9900" opacity="1" stroke-width="4" stroke="#000000"></path><path d="M383.93 362.93L877.87 362.93C897.09 362.93 915.07 378.53 918.52 397.61L971.98 702.54 408.82 702.54 355.36 397.61C352.15 378.53 364.72 362.93 383.93 362.93Z" fill="#ffffff" opacity="1" stroke-width="4" stroke="#000000"></path><path d="M590.33 820.38H790.2" stroke="#000000" stroke-width="4" stroke-linecap="round" stroke-linejoin="round" opacity="1" fill="none"></path><path d="M622.4 340.53C618.98 337.39 618.39 332.48 621.05 329.56 623.71 326.64 628.64 326.81 632.06 329.96 635.46 333.08 636.08 338.01 633.42 340.93 630.73 343.85 625.8 343.68 622.4 340.53Z" fill="#000000" opacity="1" stroke-width="4" stroke="#000000"></path></g><g><path d="M697.01 673.62C773.35 673.62 822.7 611.73 807.22 535.39 791.75 459.04 717.31 397.15 640.97 397.15 564.62 397.15 515.28 459.04 530.75 535.39 546.23 611.73 620.67 673.62 697.01 673.62Z" fill="#42aee0" opacity="1" stroke-width="4" stroke="#000000"></path><path d="M676.63 470.06L691.25 542.17C693.6 553.75 686.17 563.06 674.6 563.06 663.02 563.06 651.82 553.75 649.48 542.17L634.86 470.06C632.51 458.49 639.94 449.17 651.51 449.17 663.06 449.04 674.29 458.49 676.63 470.06Z" fill="#ff9900" opacity="1" stroke-width="4" stroke="#000000"></path><path d="M686.46 621.6C698 621.6 705.46 612.25 703.12 600.71 700.78 589.18 689.53 579.82 678 579.82 666.46 579.82 659 589.18 661.34 600.71 663.68 612.25 674.93 621.6 686.46 621.6Z" fill="#ff9900" opacity="1" stroke-width="4" stroke="#000000"></path></g><g><path d="M1065.36 875.41L1093.08 816.54C1089.3 796.32 1083.94 779.81 1081.58 771.52 1078.58 761.16 1075.51 738.73 1075.86 719.86L999.62 720.79C999.84 722.72 1000.48 728.15 1000.77 730.08 1005.63 763.52 1011.41 792.39 1016.13 816.54L1065.36 875.41Z" fill="#8d5b35" opacity="1" stroke-width="4" stroke="#000000"></path><path d="M1075.86 724.29L1002.84 724.22 1077.36 747.94C1076.58 740.58 1076.01 732.44 1075.86 724.29Z" fill="#8d5b3500" opacity="0" stroke-width="4" stroke="#ffffff00"></path><path d="M1172.4 867.98L1198.83 816.89C1194.19 800.68 1188.47 784.81 1181.61 769.38 1176.04 756.66 1167.04 737.44 1163.39 719.01L1087.15 720.08C1088.01 723.44 1089.87 731.08 1090.8 734.44 1099.37 766.02 1108.95 793.6 1117.23 816.97L1172.4 867.98Z" fill="#8d5b35" opacity="1" stroke-width="4" stroke="#000000"></path><path d="M1164.61 724.36L1092.44 724.29 1172.97 749.3C1170.04 742.01 1166.97 733.94 1164.61 724.36Z" fill="#8d5b3500" opacity="0" stroke-width="4" stroke="#ffffff00"></path><path d="M991.34 929.43C989.12 933.29 987.62 939.29 987.19 943.72H1082.94C1082.94 943.72 1084.87 937.65 1086.94 929.43H991.34Z" fill="#000000" opacity="1" stroke-width="4" stroke="#000000"></path><path d="M1085.8 903.71C1069.86 903.71 1056.21 915.14 1053.43 930.86H1086.51C1088.23 924.14 1090.23 915.14 1092.16 904.35 1090.08 903.92 1087.94 903.71 1085.8 903.71Z" fill="#5083fb" opacity="1" stroke-width="4" stroke="#000000"></path><path d="M1085.8 903.71C1087.94 903.71 1090.08 903.92 1092.16 904.35 1093.87 894.49 1095.44 883.13 1096.51 870.84 1098.09 851.91 1096.16 832.97 1093.01 816.54H1083.94C1075.29 816.54 1068.08 823.18 1067.36 831.83L1065.07 860.84 1057.72 835.47C1054.43 824.25 1044.21 816.54 1032.49 816.54H1016.13C1025.13 863.05 1030.13 892.2 1017.2 903.71 1003.34 916.07 994.98 921.71 990.62 930.86H1053.43C1056.21 915.14 1069.86 903.71 1085.8 903.71Z" fill="#5083fb" opacity="1" stroke-width="4" stroke="#000000"></path><path d="M1107.45 929.86C1105.45 933.29 1103.59 938.29 1102.94 943.72H1200.12C1201.26 939.51 1202.26 934.86 1202.98 930.5L1107.45 929.86Z" fill="#000000" opacity="1" stroke-width="4" stroke="#000000"></path><path d="M1205.83 903.71H1206.34C1207.05 894.21 1207.48 882.99 1207.26 870.13 1206.98 851.91 1203.41 833.26 1198.83 816.89H1191.12C1182.47 816.89 1175.25 823.54 1174.54 832.19L1172.18 861.19 1164.89 835.83C1161.61 824.61 1151.39 816.89 1139.67 816.89H1117.23C1133.95 863.77 1145.6 893.71 1133.67 905.14 1120.38 917.86 1111.59 922.57 1106.87 930.86H1173.54C1176.25 915.14 1189.9 903.71 1205.83 903.71Z" fill="#5083fb" opacity="1" stroke-width="4" stroke="#000000"></path><path d="M1173.47 930.86H1202.98C1204.55 921.86 1205.69 912.78 1206.34 903.71H1205.83C1189.9 903.71 1176.25 915.14 1173.47 930.86Z" fill="#5083fb" opacity="1" stroke-width="4" stroke="#000000"></path><path d="M1157.96 842.97H1182.26" stroke="#000000" stroke-width="4" stroke-linecap="round" stroke-linejoin="round" opacity="1" fill="none"></path><path d="M1052.21 842.97H1076.51" stroke="#000000" stroke-width="4" stroke-linecap="round" stroke-linejoin="round" opacity="1" fill="none"></path><path d="M1160.11 697.93C1152.67 625.33 1145.67 592.75 1131.02 560.74 1128.17 554.45 1124.67 547.31 1121.16 540.8L1022.35 541.59C1022.35 541.59 1019.49 548.59 1015.84 560.67 1006.56 591.46 991.34 655.63 1000.05 724.29H1164.61C1162.46 715.65 1160.96 706.86 1160.11 697.93Z" fill="#ff9900" opacity="1" stroke-width="4" stroke="#000000"></path><path d="M1115.45 347.6C1112.52 334.74 1113.3 317.09 1105.73 306.94 1097.37 295.65 1082.79 293.58 1062.57 294.58 1041.92 295.58 1028.42 308.44 1028.99 326.95 1029.35 339.81 1030.49 373.75 1031.99 391.83L1086.72 392.04 1086.58 386.04C1096.94 389.47 1108.8 385.18 1114.38 376.54 1119.02 369.32 1117.52 359.25 1115.45 347.6Z" fill="#8d5b35" opacity="1" stroke-width="4" stroke="#000000"></path><path d="M1086.65 386.04C1086.65 386.04 1082.29 383.97 1073.43 378.54L1086.72 395.76 1086.65 386.04Z" fill="#8d5b3500" opacity="0" stroke-width="4" stroke="#ffffff00"></path><path d="M1063.5 289.79C1065.43 276.72 1062.22 265.14 1053.64 259.14 1044.57 252.85 1031.78 254.21 1019.56 261.5 1018.99 254.14 1015.92 247.78 1010.41 243.99 998.27 235.49 978.69 242.49 966.76 259.57 954.82 276.72 954.97 297.44 967.11 305.94 972.76 309.87 979.9 310.52 987.19 308.3 984.83 321.95 987.98 334.09 996.84 340.31 1005.2 346.17 1016.77 345.38 1028.06 339.52 1028.78 350.53 1029.85 364.6 1030.71 376.75 1030.71 376.75 1052.86 379.75 1058.25 367.3 1058.57 366.89 1034.28 352.6 1043.57 338.31 1052.86 324.02 1071.43 340.45 1071.43 340.45 1073.54 342.82 1068.73 321.43 1072.1 321.27 1087.63 323.39 1081.58 308.27 1083.18 309.44 1096.2 319.03 1105.66 306.66 1105.66 306.66 1099.48 294.53 1083.15 289.15 1063.5 289.79Z" fill="#cac2bf" opacity="1" stroke-width="4" stroke="#000000"></path><path d="M1003.84 315.45C997.27 310.87 992.98 303.8 991.05 295.3 983.41 313.8 985.26 332.31 997.12 340.45 1011.77 350.67 1028.56 339.02 1028.56 339.02L1027.63 317.59C1027.63 317.59 1018.27 325.52 1003.84 315.45Z" fill="#cac2bf00" opacity="0" stroke-width="4" stroke="#ffffff00"></path><path d="M1063.5 289.79C1041.85 290.87 1028.35 306.3 1026.85 325.02 1026.92 328.24 1027.85 334.45 1028.13 339.67" stroke="#000000" stroke-width="4" stroke-linecap="round" stroke-linejoin="round" opacity="1" fill="none"></path><path d="M986.91 310.3C988.34 301.3 992.12 290.65 998.41 281.72 1004.7 272.79 1011.56 266 1019.49 261.5" stroke="#000000" stroke-width="4" stroke-linecap="round" stroke-linejoin="round" opacity="1" fill="none"></path><path d="M1086.58 386.04C1083.8 384.61 1080.44 382.75 1077.44 381.04" stroke="#000000" stroke-width="4" stroke-linecap="round" stroke-linejoin="round" opacity="1" fill="none"></path><path d="M1056.5 349.24L1063.65 353.53" stroke="#000000" stroke-width="4" stroke-linecap="round" stroke-linejoin="round" opacity="1" fill="none"></path><path d="M1100.44 350.03L1101.02 352.03C1101.37 353.17 1101.02 354.39 1100.16 355.17L1099.94 355.39" stroke="#000000" stroke-width="4" stroke-linecap="round" stroke-linejoin="round" opacity="1" fill="none"></path><path d="M1102.44 364.18C1101.16 365.1 1096.94 365.25 1094.51 362.25" stroke="#000000" stroke-width="4" stroke-linecap="round" stroke-linejoin="round" opacity="1" fill="none"></path><path d="M1087.58 344.24C1088.89 344.24 1089.94 343.19 1089.94 341.88 1089.94 340.58 1088.89 339.52 1087.58 339.52 1086.28 339.52 1085.22 340.58 1085.22 341.88 1085.22 343.19 1086.28 344.24 1087.58 344.24Z" fill="#231f20" opacity="1" stroke-width="4" stroke="#000000"></path><path d="M1107.73 341.17C1109.03 341.17 1110.09 340.12 1110.09 338.81 1110.09 337.51 1109.03 336.45 1107.73 336.45 1106.43 336.45 1105.37 337.51 1105.37 338.81 1105.37 340.12 1106.43 341.17 1107.73 341.17Z" fill="#231f20" opacity="1" stroke-width="4" stroke="#000000"></path><path d="M1086.87 354.24C1092.59 354.24 1097.23 348.81 1097.23 342.1 1097.23 335.39 1092.59 329.95 1086.87 329.95 1081.15 329.95 1076.51 335.39 1076.51 342.1 1076.51 348.81 1081.15 354.24 1086.87 354.24Z" stroke="#000000" stroke-width="4" stroke-linecap="round" stroke-linejoin="round" opacity="1" fill="none"></path><path d="M1112.36 349.95C1118.08 349.72 1122.49 344.1 1122.23 337.4 1121.96 330.69 1117.11 325.45 1111.39 325.68 1105.67 325.91 1101.26 331.52 1101.52 338.22 1101.79 344.93 1106.65 350.18 1112.36 349.95Z" stroke="#000000" stroke-width="4" stroke-linecap="round" stroke-linejoin="round" opacity="1" fill="none"></path><path d="M857.15 393.54C849.29 389.97 803.56 368.53 798.56 374.96 793.56 381.4 819.99 392.83 819.99 392.83 809.99 395.69 814.99 404.97 814.99 404.97 807.13 409.98 813.56 417.84 813.56 417.84 812.14 419.26 810.71 426.41 817.14 432.84 823.57 439.27 830 434.98 830 434.98 840 451.42 851.43 447.85 851.43 447.85 851.43 447.85 861.58 459.64 873.44 471.28L907.38 425.62C886.87 412.05 861.37 395.47 857.15 393.54Z" fill="#8d5b35" opacity="1" stroke-width="4" stroke="#000000"></path><path d="M1086.51 397.83H1032.21C1032.21 397.83 1018.63 398.54 997.2 409.98 975.76 421.41 938.6 446.42 938.6 446.42 938.6 446.42 922.6 435.7 904.74 423.91L871.23 469.14C889.16 486.72 915.95 508.87 937.89 509.29 974.33 510.01 1012.2 480 1012.2 480L1022.2 542.16H1121.52L1127.24 407.83C1110.8 395.9 1086.51 397.83 1086.51 397.83Z" fill="#42aee0" opacity="1" stroke-width="4" stroke="#000000"></path><path d="M1012.2 480C1012.2 480 1003.48 486.86 990.41 494L1009.49 462.49 1012.2 480Z" fill="#42aee000" opacity="0" stroke-width="4" stroke="#ffffff00"></path><path d="M1078.86 542.16H1121.52L1125.09 458.13 1104.23 471.42C1104.23 471.5 1102.16 517.37 1078.86 542.16Z" fill="#42aee000" opacity="0" stroke-width="4" stroke="#ffffff00"></path><path d="M1022.2 542.23H1121.52" stroke="#000000" stroke-width="4" stroke-linecap="round" stroke-linejoin="round" opacity="1" fill="none"></path><path d="M1060.07 545.02C1030.78 565.74 1014.92 597.61 1018.63 605.04 1019.35 606.47 1022.2 607.18 1023.99 606.75 1022.2 612.19 1024.35 617.19 1029.35 615.76 1028.63 619.33 1033.49 621.76 1037.92 618.62 1045.07 613.61 1050.78 602.18 1054.36 597.89 1054.36 597.89 1048.64 627.9 1054.36 627.9 1058.36 627.9 1065.07 610.04 1070.08 597.18 1085.08 588.61 1087.22 585.03 1092.23 577.89 1100.16 577.75 1110.8 576.74 1118.74 575.74L1100.16 526.59C1087.8 530.94 1069.72 538.23 1060.07 545.02Z" fill="#8d5b35" opacity="1" stroke-width="4" stroke="#000000"></path><path d="M1127.24 407.83L1084.37 427.84 1118.66 520.73C1118.66 520.73 1108.95 523.37 1096.8 527.73L1115.95 576.1C1143.24 572.53 1172.04 563.03 1178.61 542.16 1189.9 506.58 1147.96 422.84 1127.24 407.83Z" fill="#42aee0" opacity="1" stroke-width="4" stroke="#000000"></path><path d="M1127.24 407.83C1111.66 396.54 1089.08 397.69 1086.72 397.83V391.4H1031.85C1031.99 393.9 1032.21 396.04 1032.35 397.83H1032.21C1032.21 397.83 1018.63 398.54 997.2 409.98 990.76 413.41 982.83 418.12 976.34 422.31 977.68 432.8 1002.03 423.46 1001.79 426.67 1000.87 454.63 1042.21 462.85 1050.93 441.84 1051.18 439.52 1061.8 479.53 1091.51 471.42 1111.96 466.16 1100.8 433.56 1101.71 433.92 1133.67 449.99 1145.6 430.13 1145.6 430.13 1138.96 419.62 1132.38 411.55 1127.24 407.83Z" fill="#5083fb" opacity="1" stroke-width="4" stroke="#000000"></path><path d="M1105.16 484.21L1118.66 520.73C1118.66 520.73 1108.95 523.37 1096.8 527.73" stroke="#000000" stroke-width="4" stroke-linecap="round" stroke-linejoin="round" opacity="1" fill="none"></path><path d="M1118.66 520.73L1131.52 517.15" stroke="#000000" stroke-width="4" stroke-linecap="round" stroke-linejoin="round" opacity="1" fill="none"></path><path d="M1012.2 480L1009.99 465.71" stroke="#000000" stroke-width="4" stroke-linecap="round" stroke-linejoin="round" opacity="1" fill="none"></path><path d="M938.6 446.42L948.61 452.13" stroke="#000000" stroke-width="4" stroke-linecap="round" stroke-linejoin="round" opacity="1" fill="none"></path><path d="M1023.99 606.75C1028.28 595.32 1035.78 582.18 1042.92 574.32" stroke="#000000" stroke-width="4" stroke-linecap="round" stroke-linejoin="round" opacity="1" fill="none"></path><path d="M1029.35 615.76C1035.78 604.18 1043.21 593.18 1051.5 582.89" stroke="#000000" stroke-width="4" stroke-linecap="round" stroke-linejoin="round" opacity="1" fill="none"></path><path d="M1054.36 597.89L1058.64 591.46" stroke="#000000" stroke-width="4" stroke-linecap="round" stroke-linejoin="round" opacity="1" fill="none"></path><path d="M813.56 417.84C820.42 423.19 827.5 427.7 832.28 424.27 837.07 420.84 832.07 412.91 832.07 412.91" stroke="#000000" stroke-width="4" stroke-linecap="round" stroke-linejoin="round" opacity="1" fill="none"></path><path d="M830 434.98C831.78 432.05 833 427.98 830.57 425.55" stroke="#000000" stroke-width="4" stroke-linecap="round" stroke-linejoin="round" opacity="1" fill="none"></path><path d="M857.15 393.54C849.15 394.19 832.57 399.83 826.35 404.69 819.57 409.9 825.71 414.91 847.86 412.12 847.86 412.12 848.58 428.55 858.58 434.98" stroke="#000000" stroke-width="4" stroke-linecap="round" stroke-linejoin="round" opacity="1" fill="none"></path><path d="M814.99 404.97C816.92 407.05 820.49 409.33 823.78 409.76" stroke="#000000" stroke-width="4" stroke-linecap="round" stroke-linejoin="round" opacity="1" fill="none"></path><path d="M819.99 392.83C821.78 393.83 823.85 394.69 825.71 395.54" stroke="#000000" stroke-width="4" stroke-linecap="round" stroke-linejoin="round" opacity="1" fill="none"></path><path d="M1086.72 397.83C1083.01 398.62 1079.37 400.33 1076.51 402.83" stroke="#000000" stroke-width="4" stroke-linecap="round" stroke-linejoin="round" opacity="1" fill="none"></path></g><g><path d="M238.37 920.74L293.39 1024.82C294.26 1025.49 296.38 1025.49 296.86 1024.72L409.52 854.34C409.81 853.86 409.32 853.28 408.84 853.48L239.72 917.08C238.95 917.27 237.31 919.01 238.37 920.74Z" fill="#42aee0" opacity="1" stroke-width="4" stroke="#000000"></path><path d="M239.14 919.2L294.45 1023.85C294.84 1024.53 294.07 1025.3 293.39 1024.82L227.38 982.7 237.98 919.39C238.08 918.81 238.85 918.62 239.14 919.2Z" fill="#231f20" opacity="1" stroke-width="4" stroke="#000000"></path></g><g><path d="M1258.67 346.51C1216.73 346.51 1182.61 312.4 1182.61 270.46 1182.61 228.52 1216.73 194.4 1258.67 194.4 1300.61 194.4 1334.72 228.52 1334.72 270.46 1334.72 312.4 1300.61 346.51 1258.67 346.51Z" fill="#5083fb" stroke="#000000" stroke-width="4" opacity="1"></path><path d="M1233.05 269.33L1254.42 290.7 1284.29 250.36" stroke="#000000" stroke-width="4" stroke-linecap="round" stroke-linejoin="round" opacity="1" fill="none"></path></g></svg>