<svg xmlns="http://www.w3.org/2000/svg" version="1.1" xmlns:xlink="http://www.w3.org/1999/xlink" xmlns:svgjs="http://svgjs.com/svgjs" width="1920" height="1080" preserveAspectRatio="none" viewBox="0 0 1920 1080"><g mask="url(&quot;#SvgjsMask1146&quot;)" fill="none"><path d="M1621.63,1092.135C1660.951,1090.689,1701.437,1078.973,1721.125,1044.905C1740.824,1010.818,1732.728,968.771,1712.407,935.051C1692.811,902.534,1659.595,879.804,1621.63,879.809C1583.673,879.814,1551.66,903.302,1530.891,935.073C1507.483,970.881,1487.195,1015.679,1508.595,1052.722C1529.989,1089.754,1578.891,1093.707,1621.63,1092.135" fill="rgba(28, 83, 142, 0.25)" class="triangle-float2"></path><path d="M542.311,362.132C600.934,362.506,646.553,316.349,674.381,264.751C700.636,216.071,706.922,157.315,678.299,109.988C650.542,64.093,595.941,47.157,542.311,46.378C486.973,45.575,427.646,58.4,399.308,105.938C370.449,154.349,385.659,213.871,413.129,263.084C441.474,313.866,484.155,361.761,542.311,362.132" fill="rgba(28, 83, 142, 0.25)" class="triangle-float1"></path><path d="M1407.563,1138.132C1483.46,1137.921,1536.265,1072.403,1574.638,1006.921C1613.593,940.445,1645.829,861.831,1609.201,794.045C1571.248,723.808,1487.398,697.463,1407.563,697.725C1328.255,697.985,1246.097,725.691,1208.202,795.359C1171.551,862.74,1200.308,941.549,1238.872,1007.854C1277.156,1073.678,1331.415,1138.344,1407.563,1138.132" fill="rgba(28, 83, 142, 0.25)" class="triangle-float1"></path><path d="M671.404,1019.477C733.093,1014.749,766.32,954.218,797.504,900.781C829.074,846.683,871.013,785.058,839.94,730.673C808.752,676.087,734.267,679.325,671.404,680.077C610.442,680.806,543.917,684.158,509.71,734.623C471.93,790.36,473.457,864.512,506.697,923.071C540.356,982.367,603.42,1024.688,671.404,1019.477" fill="rgba(28, 83, 142, 0.25)" class="triangle-float1"></path><path d="M1307.617,527.843C1343.926,526.62,1372.913,502.116,1392.121,471.279C1412.792,438.092,1429.368,397.342,1410.092,363.326C1390.64,328.999,1347.066,322.83,1307.617,322.153C1266.519,321.448,1220.325,324.646,1198.867,359.704C1176.78,395.79,1189.664,441.798,1212.642,477.324C1233.515,509.595,1269.206,529.137,1307.617,527.843" fill="rgba(28, 83, 142, 0.25)" class="triangle-float1"></path><path d="M1449.595,1157.549C1525.382,1155.617,1598.927,1118.276,1632.783,1050.444C1663.881,988.138,1633.546,918.885,1598.852,858.507C1563.985,797.826,1519.567,733.002,1449.595,731.638C1378.063,730.243,1327.121,791.378,1289.906,852.484C1250.579,917.058,1214.42,993.23,1249.484,1060.215C1286.354,1130.65,1370.119,1159.575,1449.595,1157.549" fill="rgba(28, 83, 142, 0.25)" class="triangle-float1"></path><path d="M145.289,1118.665C237.073,1114.619,294.406,1030.758,340.523,951.298C386.899,871.392,437.087,776.78,389.766,697.43C343.051,619.095,236.494,623.326,145.289,623.917C55.604,624.498,-44.489,625.623,-93.763,700.562C-146.684,781.047,-130.036,886.312,-82.225,969.934C-34.024,1054.237,48.273,1122.942,145.289,1118.665" fill="rgba(28, 83, 142, 0.25)" class="triangle-float3"></path><path d="M774.863,229.033C805.188,228.896,831.12,209.097,845.947,182.644C860.424,156.814,860.598,126.237,847.31,99.776C832.362,70.01,808.163,41.857,774.863,41.093C740.6,40.307,711.94,65.759,696.424,96.317C682.32,124.093,686.81,156.472,702.66,183.29C718.197,209.579,744.326,229.171,774.863,229.033" fill="rgba(28, 83, 142, 0.25)" class="triangle-float3"></path><path d="M574.327,1209.372C631.345,1210.791,690.155,1191.82,719.475,1142.897C749.5,1092.799,743.139,1029.025,712.042,979.586C682.873,933.212,629.085,913.844,574.327,912.135C515.701,910.305,450.86,920.089,420.873,970.499C390.423,1021.688,408.984,1085.859,441.176,1135.971C470.536,1181.673,520.024,1208.021,574.327,1209.372" fill="rgba(28, 83, 142, 0.25)" class="triangle-float1"></path></g><defs><mask id="SvgjsMask1146"><rect width="1920" height="1080" fill="#ffffff"></rect></mask><style>
            @keyframes float1 {
                0%{transform: translate(0, 0)}
                50%{transform: translate(-10px, 0)}
                100%{transform: translate(0, 0)}
            }

            .triangle-float1 {
                animation: float1 5s infinite;
            }

            @keyframes float2 {
                0%{transform: translate(0, 0)}
                50%{transform: translate(-5px, -5px)}
                100%{transform: translate(0, 0)}
            }

            .triangle-float2 {
                animation: float2 4s infinite;
            }

            @keyframes float3 {
                0%{transform: translate(0, 0)}
                50%{transform: translate(0, -10px)}
                100%{transform: translate(0, 0)}
            }

            .triangle-float3 {
                animation: float3 6s infinite;
            }
        </style></defs></svg>