<svg xmlns="http://www.w3.org/2000/svg" version="1.1" xmlns:xlink="http://www.w3.org/1999/xlink" xmlns:svgjs="http://svgjs.com/svgjs" width="1920" height="1080" preserveAspectRatio="none" viewBox="0 0 1920 1080"><g mask="url(&quot;#SvgjsMask1199&quot;)" fill="none"><path d="M89.481,407.13C166.339,411.963,254.94,410.084,295.835,344.83C338.292,277.083,307.536,192.118,267.658,122.821C227.653,53.305,169.666,-11.959,89.481,-13.752C6.846,-15.6,-66.4,40.446,-103.052,114.532C-136.1,181.334,-117.308,259.168,-76.34,321.428C-39.683,377.136,22.925,402.945,89.481,407.13" fill="rgba(28, 83, 142, 0.4)" class="triangle-float3"></path><path d="M330.4768995007043 802.067427602638L3.131495328173031 883.3525216677938 204.21296520592324 1098.985998130464z" fill="rgba(28, 83, 142, 0.4)" class="triangle-float3"></path><path d="M1693.541,557.546C1783.303,561.076,1876.604,535.296,1925.172,459.726C1977.399,378.462,1981.924,270.942,1930.153,189.386C1881.366,112.53,1784.567,93.729,1693.541,94.833C1604.943,95.907,1511.175,118.394,1466.664,195.007C1421.992,271.896,1444.277,367.291,1491.45,442.671C1535.506,513.071,1610.556,554.283,1693.541,557.546" fill="rgba(28, 83, 142, 0.4)" class="triangle-float2"></path><path d="M1472.671,946.297C1504.605,944.8,1531.695,926.13,1548.65,899.028C1566.9,869.856,1579.842,833.008,1561.922,803.632C1544.453,774.995,1506.177,772.854,1472.671,774.474C1442.662,775.925,1414.035,786.703,1397.213,811.596C1377.969,840.073,1366.463,876.796,1383.261,906.782C1400.329,937.251,1437.785,947.933,1472.671,946.297" fill="rgba(28, 83, 142, 0.4)" class="triangle-float1"></path><path d="M1062.812,562.566C1172.797,561.663,1263.411,481.069,1312.695,382.739C1357.048,294.246,1340.595,192.389,1291.399,106.494C1241.851,19.984,1162.433,-49.749,1062.812,-53.553C956.857,-57.598,855.302,-3.771,801.851,87.803C747.979,180.097,754.243,293.25,805.72,386.901C859.305,484.388,951.573,563.479,1062.812,562.566" fill="rgba(28, 83, 142, 0.4)" class="triangle-float1"></path><path d="M1480.13,509.562C1516.775,512.187,1557.482,509.391,1578.368,479.166C1601.635,445.495,1602.875,398.753,1580.285,364.624C1559.436,333.126,1517.9,331.204,1480.13,330.752C1441.184,330.286,1394.856,328.243,1375.739,362.178C1356.781,395.831,1381.25,435.127,1403.575,466.647C1421.698,492.234,1448.855,507.322,1480.13,509.562" fill="rgba(28, 83, 142, 0.4)" class="triangle-float2"></path><path d="M1919.861,1211.98C2003.864,1213.41,2093.691,1200.877,2140.737,1131.269C2192.944,1054.024,2195.109,952.449,2150.66,870.494C2104.1,784.645,2017.289,717.259,1919.861,724.014C1830.037,730.242,1780.131,819.203,1738.551,899.067C1701.182,970.844,1671.065,1053.949,1711.635,1123.966C1752.126,1193.848,1839.108,1210.606,1919.861,1211.98" fill="rgba(28, 83, 142, 0.4)" class="triangle-float2"></path><path d="M-20.684781075610466 156.77468524148145L-124.71054211470458 250.43990119224247 67.800162330984 359.6459347755031z" fill="rgba(28, 83, 142, 0.4)" class="triangle-float3"></path><path d="M129.799,154.38C160.268,153.585,189.692,140.966,205.396,114.844C221.572,87.938,221.79,54.336,206.394,26.976C190.697,-0.92,161.795,-20.426,129.799,-19.503C99.136,-18.618,76.231,4.854,60.495,31.186C44.218,58.424,31.487,91.321,47.045,118.976C62.812,147.003,97.653,155.219,129.799,154.38" fill="rgba(28, 83, 142, 0.4)" class="triangle-float2"></path><path d="M1710.1341118389525 361.29268362324837L1851.1182180628018 45.44763055477392 1549.913179585258 71.79965681844891z" fill="rgba(28, 83, 142, 0.4)" class="triangle-float3"></path><path d="M296.263,1164.365C399.832,1166.112,505.648,1122.855,553.773,1031.129C599.409,944.148,559.182,844.06,508.445,759.952C459.877,679.44,390.288,603.709,296.263,604.246C202.916,604.78,135.104,681.621,88.241,762.354C41.131,843.512,10.243,939.347,53.369,1022.69C99.538,1111.913,195.817,1162.671,296.263,1164.365" fill="rgba(28, 83, 142, 0.4)" class="triangle-float2"></path><path d="M644.261,572.833C743.903,567.809,819.008,492.329,867.607,405.197C914.701,320.763,932.437,221.371,888.256,135.378C840.176,41.797,749.441,-32.048,644.261,-29.515C542.349,-27.061,470.899,58.444,419.804,146.657C368.544,235.155,330.515,339.386,378.173,429.874C428.461,525.356,536.483,578.267,644.261,572.833" fill="rgba(28, 83, 142, 0.4)" class="triangle-float1"></path><path d="M938.243,918.965C1031.936,919.94,1123.243,881.089,1172.749,801.537C1225.11,717.398,1236.553,608.266,1183.805,524.37C1133.68,444.645,1032.416,428.267,938.243,428.554C844.731,428.839,744.209,446.181,695.258,525.857C644.5,608.475,661.055,714.265,712.037,796.745C760.334,874.881,846.39,918.01,938.243,918.965" fill="rgba(28, 83, 142, 0.4)" class="triangle-float3"></path><path d="M1264.9448538534255 598.3054316255943L1550.6347681718016 588.6015115903917 1421.9360543304965 374.41088273940727z" fill="rgba(28, 83, 142, 0.4)" class="triangle-float3"></path><path d="M448.096,929.497C485.906,930.489,514.905,899.611,533.175,866.493C550.723,834.684,556.263,796.859,538.861,764.97C520.753,731.787,485.898,710.478,448.096,710.585C410.47,710.692,375.375,731.994,358.219,765.481C342.335,796.485,353.67,831.674,370.411,862.224C388.054,894.421,411.395,928.535,448.096,929.497" fill="rgba(28, 83, 142, 0.4)" class="triangle-float2"></path></g><defs><mask id="SvgjsMask1199"><rect width="1920" height="1080" fill="#ffffff"></rect></mask><style>
            @keyframes float1 {
                0%{transform: translate(0, 0)}
                50%{transform: translate(-10px, 0)}
                100%{transform: translate(0, 0)}
            }

            .triangle-float1 {
                animation: float1 5s infinite;
            }

            @keyframes float2 {
                0%{transform: translate(0, 0)}
                50%{transform: translate(-5px, -5px)}
                100%{transform: translate(0, 0)}
            }

            .triangle-float2 {
                animation: float2 4s infinite;
            }

            @keyframes float3 {
                0%{transform: translate(0, 0)}
                50%{transform: translate(0, -10px)}
                100%{transform: translate(0, 0)}
            }

            .triangle-float3 {
                animation: float3 6s infinite;
            }
        </style></defs></svg>