<svg xmlns="http://www.w3.org/2000/svg" height="1000" width="1000" version="1.1" xmlns:xlink="http://www.w3.org/1999/xlink" xmlns:svgjs="http://svgjs.com/svgjs"><g><path d="M341.69 750H658.31C680.97 750 699.4 731.57 699.4 708.91V291.09C699.4 268.43 680.97 250 658.31 250H477.95C475.23 250 472.81 251.51 471.9 253.93L419.64 378.4 306.04 420.69C302.72 421.9 300.6 425.23 300.6 428.85V709.21C300.6 731.87 319.03 750 341.69 750Z" fill="#0f1f3f" opacity="1" stroke-width="4" stroke="#000000"></path><path d="M303.93 421.9C303.32 422.51 303.93 424.02 305.14 424.02L433.23 423.11C455.89 423.11 474.32 404.68 474.32 382.02L473.11 252.11 303.93 421.9Z" fill="#ffffff" opacity="1" stroke-width="4" stroke="#000000"></path></g></svg>