<svg xmlns="http://www.w3.org/2000/svg" height="1200" width="1600" version="1.1" xmlns:xlink="http://www.w3.org/1999/xlink" xmlns:svgjs="http://svgjs.com/svgjs"><g><path d="M1216.94 250.66C1261.48 278.69 1299.29 357.02 1250.55 448.19 1250.55 448.19 1332.18 414.88 1369.52 481.69" stroke="#000000" stroke-width="4" stroke-linecap="round" stroke-linejoin="round" opacity="1" fill="none"></path><path d="M1370.78 447.59C1386.63 454.56 1400.61 470.4 1407.82 490.87" stroke="#000000" stroke-width="4" stroke-linecap="round" stroke-linejoin="round" opacity="1" fill="none"></path><path d="M1298.27 368.12C1297.67 382.17 1292.45 396.75 1288.91 403.18" stroke="#000000" stroke-width="4" stroke-linecap="round" stroke-linejoin="round" opacity="1" fill="none"></path><path d="M1285.37 280.73L1297.31 258.52" stroke="#000000" stroke-width="4" stroke-linecap="round" stroke-linejoin="round" opacity="1" fill="none"></path><path d="M1301.15 283.55L1328.04 264.28" stroke="#000000" stroke-width="4" stroke-linecap="round" stroke-linejoin="round" opacity="1" fill="none"></path></g><g><path d="M175.61 521.29C191.76 522.51 209.14 522.75 244.84 492.09 307.14 438.55 338.14 430.77 342.52 455.59 346.37 477.49 313.29 511.56 299.45 533.46 270.14 579.82 277.45 611.45 310.99 602.81 344.06 594.3 364.06 563.88 391.75 607.68" stroke="#000000" stroke-width="4" stroke-linecap="round" stroke-linejoin="round" opacity="1" fill="none"></path></g><g><path d="M839.83 766.14H523.74L402.72 872.03C389.17 883.8 369.75 881.35 358.91 867.13 354.4 861.25 352.14 853.89 352.14 846.05V477.37C352.14 318.04 471.35 188.61 618.11 188.61H839.83C986.59 188.61 1105.8 318.04 1105.8 477.37 1106.26 636.71 987.04 766.14 839.83 766.14Z" fill="#ff9900" opacity="1" stroke-width="4" stroke="#000000"></path></g><g><path d="M627.41 374.03L757.32 345.39C786.89 338.83 816.24 357.45 822.71 387.21L851.35 517.12C857.91 546.69 839.29 576.04 809.53 582.51L679.62 611.15C650.05 617.71 620.7 599.09 614.23 569.33L585.59 439.42C579.21 409.94 597.84 380.59 627.41 374.03Z" fill="#236699" opacity="1" stroke-width="4" stroke="#000000"></path><path d="M685.77 451.89L659.18 493.6" stroke="#000000" stroke-width="4" stroke-linecap="round" stroke-linejoin="round" opacity="1" fill="none"></path><path d="M651.63 459.45L693.33 486.04" stroke="#000000" stroke-width="4" stroke-linecap="round" stroke-linejoin="round" opacity="1" fill="none"></path><path d="M772.66 432.69L746.07 474.39" stroke="#000000" stroke-width="4" stroke-linecap="round" stroke-linejoin="round" opacity="1" fill="none"></path><path d="M738.52 440.24L780.4 466.92" stroke="#000000" stroke-width="4" stroke-linecap="round" stroke-linejoin="round" opacity="1" fill="none"></path><path d="M713.53 523.27L743.65 516.52" stroke="#000000" stroke-width="4" stroke-linecap="round" stroke-linejoin="round" opacity="1" fill="none"></path></g><g><path d="M1030.76 1007.19C1030.85 1007.19 1030.85 1007.19 1030.76 1007.19 1035.55 997.44 1040.16 985.08 1043.38 972.11 1045.21 964.54 1046.43 954.88 1047.73 946.27 1047.73 946.18 1047.82 946.27 1047.73 946.27L962.27 928.77C962.18 928.77 962.18 928.77 962.18 928.86 959.57 956.36 942.86 967.15 928.15 976.64 913.87 984.13 909.17 998.75 910.39 1007.1 910.39 1007.1 910.39 1007.19 910.48 1007.19 914.48 1007.19 1028.06 1007.19 1030.76 1007.19Z" fill="#a56250" opacity="1" stroke-width="4" stroke="#000000"></path><path d="M1035.9 995.88C1038.77 989.09 1041.38 980.47 1043.38 972.29 1043.38 972.2 1043.38 972.2 1043.29 972.2L973.58 982.91C973.49 982.91 973.49 982.82 973.49 982.82L980.98 964.46C984.89 955.06 977.5 944 967.31 944.26 967.31 944.26 959.57 944.26 958.87 944.26 958.87 944.26 958.78 944.26 958.78 944.35 952.6 961.32 939.46 969.59 927.97 976.99 927.02 977.51 926.23 978.12 925.45 978.64 918.66 982.47 912.74 991.35 911.7 995.96 911.7 996.05 911.7 996.05 911.79 996.05 914.92 996.14 967.66 999.97 1003.35 999.97 1021.71 999.79 1035.2 996.14 1035.9 995.88Z" fill="#ffffff" opacity="1" stroke-width="4" stroke="#000000"></path><path d="M1031.03 1007.1C1032.68 1003.71 1034.25 999.97 1035.82 995.96 1035.82 995.88 1035.82 995.88 1035.73 995.88H911.79C911.79 995.88 911.71 995.88 911.71 995.96 910.4 999.01 910.23 1005.71 910.49 1007.19 910.49 1007.19 910.49 1007.28 910.58 1007.28 914.58 1007.19 1028.25 1007.19 1031.03 1007.1 1031.03 1007.19 1031.03 1007.19 1031.03 1007.1Z" fill="#ff9900" opacity="1" stroke-width="4" stroke="#000000"></path><path d="M988.9 972.03C990.99 963.15 992.64 953.92 993.77 945.05 993.77 944.96 993.77 944.96 993.68 944.96L921.71 926.34 908.3 925.03C908.22 925.03 908.22 925.03 908.22 925.12 907.96 932.08 906.74 938.17 904.65 944.09 904.65 944.09 904.65 944.09 904.65 944.18L915.01 993.44C915.01 993.53 915.09 993.53 915.09 993.53L988.9 972.03C988.9 972.11 988.9 972.11 988.9 972.03Z" fill="#a56250" opacity="1" stroke-width="4" stroke="#000000"></path><path d="M1183.59 847.66V847.57C1182.63 846.09 1160.96 815.37 1134.16 782.38 1088.55 725.9 1063.31 705.62 1050.17 698.57 1015.96 679.33 973.32 692.65 956.87 729.9 939.9 766.89 957.04 860.02 962.09 913.11 962.53 918.41 962.53 923.64 962.09 928.86 962.09 928.86 962.09 928.95 962.18 928.95L1047.3 948.88C1047.38 948.88 1047.38 948.88 1047.38 948.79 1049.73 932.86 1050.95 916.67 1051.04 900.66 1051.04 900.57 1051.13 900.57 1051.21 900.66 1059.48 923.46 1074.89 948.79 1089.33 964.89 1089.33 964.89 1089.42 964.89 1089.51 964.89 1092.64 960.71 1181.5 850.18 1183.59 847.66Z" fill="#000000" opacity="1" stroke-width="4" stroke="#000000"></path><path d="M1047.31 948.62C1049.66 932.69 1050.96 916.5 1050.96 900.31 1050.96 900.22 1051.14 900.22 1051.14 900.31 1052.18 903.01 1053.05 905.19 1053.22 903.27 1052.35 890.39 1027.64 804.23 1001 805.62 954.7 807.62 960.36 886.21 961.84 913.02 962.27 918.33 962.27 923.55 961.84 928.77 961.84 928.77 961.84 928.86 961.93 928.86L994.91 936.61 1047.22 948.7C1047.31 948.7 1047.31 948.7 1047.31 948.62Z" fill="#000000" opacity="0.3" stroke-width="4" stroke="#000000"></path><path d="M1153.13 1007.19C1195.95 1008.41 1235.46 980.03 1250.35 940.96 1253.65 932.17 1249.39 907.36 1249.22 906.49 1249.48 905.88 1256.96 889.52 1255.66 877.68 1254.09 863.41 1250.87 848.61 1246.17 833.47 1246.17 833.47 1246.17 833.38 1246.08 833.38L1189.42 830.6 1129.63 847.57H1129.54C1127.37 844.61 1041.38 722.76 996.12 698.57 961.92 679.33 919.27 692.65 902.82 729.9 884.11 771.07 906.39 868.63 908.3 924.94 908.3 924.94 908.3 925.03 908.39 925.03 909.7 925.38 933.11 930.77 955.04 935.91 974.19 940.35 992.38 944.61 993.77 944.96 993.86 944.96 993.86 944.96 993.86 944.87 995.95 930.25 996.99 915.19 996.99 900.49 996.99 900.4 997.08 900.4 997.17 900.49 1026.23 973.42 1071.75 1012.76 1153.13 1007.19Z" fill="#0f1f3f" opacity="1" stroke-width="4" stroke="#000000"></path><path d="M981.68 995.79C984.47 988.39 986.99 980.38 988.82 972.2 988.82 972.11 988.82 972.11 988.73 972.11L919.45 982.82C919.37 982.82 919.37 982.73 919.37 982.73L926.85 964.37C930.77 954.97 923.37 943.92 913.19 944.18 913.19 944.18 905.35 944.18 904.66 944.18 904.66 944.18 904.57 944.18 904.57 944.26 898.39 961.24 882.12 969.5 870.54 976.9 869.58 977.42 868.8 978.03 868.02 978.56 861.23 982.38 855.4 991.35 854.44 995.88 854.44 995.96 854.44 995.96 854.53 995.96 856.61 996.05 874.89 1000.57 910.58 1000.57 933.81 1000.57 979.94 996.14 981.68 995.79 981.68 995.88 981.68 995.88 981.68 995.79Z" fill="#ffffff" opacity="1" stroke-width="4" stroke="#000000"></path><path d="M976.89 1007.1C978.54 1003.71 980.02 999.97 981.59 995.96 981.59 995.88 981.59 995.88 981.5 995.88L854.52 995.96C854.52 995.96 854.43 995.96 854.43 996.05 853.12 999.27 852.95 1005.97 853.3 1007.19 853.3 1007.19 853.3 1007.28 853.39 1007.28 857.3 1007.19 974.1 1007.19 976.89 1007.1 976.89 1007.19 976.89 1007.19 976.89 1007.1Z" fill="#ff9900" opacity="1" stroke-width="4" stroke="#000000"></path><path d="M997 899.96C976.9 850.35 952.44 761.41 952.44 761.41" stroke="#000000" stroke-width="4" stroke-linecap="round" stroke-linejoin="round" opacity="1" fill="none"></path><path d="M993.78 944.87C995.87 930.08 996.91 914.85 997 899.96 996.65 899.01 975.76 850.62 952.61 761.49 952.61 761.41 952.53 761.41 952.44 761.49 943.13 769.85 948.96 801.62 951.05 820.07 953.92 843.04 957.75 874.64 954.96 935.82 954.96 935.82 954.96 935.91 955.05 935.91 956.79 936.34 991.69 944.35 993.78 944.87 993.78 944.96 993.78 944.87 993.78 944.87Z" fill="#0f1f3f00" opacity="0" stroke-width="4" stroke="#ffffff00"></path><path d="M983.07 787.95C983.07 787.86 983.07 787.86 983.07 787.95 954.88 777.77 936.42 772.02 909.36 771.85 901.79 771.85 895.52 772.46 892.39 773.5 885.42 775.85 885.42 783.08 889.69 785.78 889.77 785.78 889.77 785.86 889.69 785.86 886.55 788.65 883.25 795.52 890.65 799.7 890.65 799.7 890.73 799.79 890.65 799.79 888.64 803.88 888.38 811.02 896.74 812.84 896.74 812.84 904.22 814.06 906.49 814.5 906.57 814.5 906.57 814.67 906.49 814.67 903.35 815.11 890.3 817.8 893.08 824.16 894.82 828.33 914.06 829.38 914.84 829.38 915.28 829.73 925.72 836.52 939.56 836.52 941.73 836.52 944.87 836.26 946.69 835.91 946.69 835.91 946.69 835.91 946.78 835.91 947.13 836.08 950 838.26 955.05 842.26 957.23 843.91 963.14 848.7 965.06 850.27 965.15 850.27 965.15 850.27 965.15 850.27 966.02 848.35 981.42 820.94 981.77 820.33L983.07 787.95Z" fill="#a56250" opacity="1" stroke-width="4" stroke="#000000"></path><path d="M1134.16 611.97L1106.22 583.07C1093.51 567.76 1072.54 552.61 1044.6 546.95 1020.93 540.95 1005.96 554.7 1000.04 562.79 994.29 570.71 989.59 601.87 989.42 602.83 989.68 603.44 996.56 617.63 1000.04 624.41V624.5C995.6 629.64 995.25 636.77 1006.22 635.9 1006.22 635.9 1006.3 635.9 1006.3 635.99 1015.7 662.97 1035.29 667.5 1053.56 653.4H1053.65C1054.09 653.92 1057.22 657.75 1059.57 660.62 1059.92 660.97 1060.18 661.4 1060.44 661.67 1061.4 662.8 1062.09 663.67 1062.27 663.93H1062.35L1134.07 612.06C1134.24 612.06 1134.24 612.06 1134.16 611.97Z" fill="#a56250" opacity="1" stroke-width="4" stroke="#000000"></path><path d="M1052.08 889.17C1064.44 889.17 1082.37 883.25 1097.17 855.14 1105.52 839.3 1109.27 823.2 1109.7 821.29 1109.7 821.2 1109.79 821.2 1109.87 821.29L1128.85 848.18H1128.93L1246 833.38C1246.08 833.38 1246.08 833.3 1246.08 833.3 1244.08 827.29 1235.64 800.14 1226.41 769.85 1215.62 734.43 1203.78 694.83 1200.04 680.29 1199.08 679.25 1136.25 614.23 1134.33 612.23H1134.24C1132.07 613.71 1063.14 659.66 1060.53 661.67 1060.53 661.67 1060.44 661.75 1060.53 661.75 1061.22 662.71 1066.36 670.19 1066.97 671.06 1066.97 671.15 1066.97 671.15 1066.97 671.15 1055.83 675.68 1033.46 692.39 1031.28 712.14 1027.11 739.04 1025.28 801.96 1025.19 805.27 1025.19 805.36 1025.1 805.36 1025.1 805.36 1024.15 804.92 1017.88 802.05 1008.92 798.22 1001.69 795.18 992.73 791.43 983.33 787.86 983.24 787.86 983.24 787.86 983.24 787.95L965.4 850.35V850.44C1008.65 881.77 1033.2 888.13 1052.08 889.17Z" fill="#ffffff" opacity="1" stroke-width="4" stroke="#000000"></path><path d="M974.62 561.75C978.98 560.71 984.02 560.71 989.51 562.01H989.59C994.03 553.31 1010.66 537.73 1032.33 535.99 1028.93 533.38 1026.15 529.37 1024.06 524.24 1023.71 523.46 1023.36 522.59 1023.1 521.71 1015.09 498.56 1030.93 456.44 1055.39 460.62 1071.49 464.62 1076.19 484.73 1072.8 503.7 1070.1 518.84 1062.18 533.2 1050.78 537.99 1073.76 545.13 1093.86 567.58 1104.13 580.2 1105 581.16 1105.7 582.12 1106.31 582.9H1106.39C1107.87 581.86 1134.16 562.88 1165.49 562.97 1169.32 562.97 1173.06 563.23 1176.72 563.67 1205.35 567.67 1225.11 586.9 1230.07 603.79 1236.07 619.89 1234.51 635.03 1234.42 636.16 1234.42 636.16 1234.42 636.25 1234.51 636.25 1235.38 636.51 1245.04 639.38 1254.7 648 1263.14 655.4 1268.45 664.28 1271.67 673.15 1274.89 682.03 1276.11 690.91 1276.28 698.22 1278.72 736.95 1247.74 763.06 1226.24 769.67 1226.15 769.67 1226.15 769.67 1226.15 769.59 1225.72 768.54 1220.76 755.84 1215.97 744.17 1213.62 738.52 1211.36 733.03 1209.79 729.38L1209.7 729.29C1173.41 734.08 1142.08 721.46 1124.93 703.96 1112.05 691.17 1103.7 672.02 1102.04 661.14 1102.04 661.14 1102.04 661.06 1101.95 661.06 1062.7 654.09 1061.92 613.8 1062.35 612.14 1067.14 607.01 1070.54 595.52 1068.36 587.25 1066.71 578.81 1060 572.46 1051.82 572.63 1038.51 572.37 1030.59 588.99 1031.72 597.96V598.04C1031.02 598.57 1010.83 605.09 994.38 605.18 980.54 605.18 958.7 598.22 958.87 580.2 959.57 570.63 965.57 563.84 974.62 561.75Z" fill="#231f20" opacity="1" stroke-width="4" stroke="#000000"></path><path d="M1043.04 539.73C1057.4 539.73 1069.33 523.63 1072.81 504.05 1072.81 503.96 1072.72 503.87 1072.63 503.96 1069.24 507.7 1065.67 511.18 1061.49 513.88 1049.48 521.54 1035.99 525.2 1023.2 521.71 1023.11 521.71 1023.11 521.8 1023.11 521.8 1027.03 532.42 1033.47 539.73 1043.04 539.73Z" fill="#231f2000" opacity="0" stroke-width="4" stroke="#ffffff00"></path><path d="M1231.03 719.54C1223.37 725.46 1214.14 728.33 1210.05 729.38 1209.96 729.38 1209.96 729.46 1209.96 729.46 1211.97 734.08 1213.36 737.38 1216.14 744.17 1216.14 744.26 1216.23 744.26 1216.32 744.26 1226.06 737.99 1230.85 721.63 1231.2 719.63 1231.2 719.54 1231.11 719.54 1231.03 719.54Z" fill="#231f2000" opacity="0" stroke-width="4" stroke="#ffffff00"></path><path d="M1250.35 940.96C1258.09 921.2 1257.66 897.96 1255.66 877.77 1255.66 877.68 1255.57 877.68 1255.57 877.68 1253.65 877.94 1218.67 882.73 1216.75 882.99 1216.66 882.99 1216.66 883.08 1216.66 883.08L1223.45 917.54C1227.89 943.65 1250.17 940.96 1250.17 940.96H1250.35Z" fill="#000000" opacity="1" stroke-width="4" stroke="#000000"></path><path d="M1155.48 885.6C1150.61 863.15 1156.87 845.65 1157.31 844.61V844.52C1126.32 814.32 1119.27 775.42 1118.32 769.24 1118.32 769.15 1118.14 769.15 1118.14 769.24 1117.01 790.39 1110.05 819.89 1109.79 821.11V821.2L1155.31 885.69C1155.39 885.78 1155.48 885.69 1155.48 885.6Z" fill="#ffffff00" opacity="0" stroke-width="4" stroke="#ffffff00"></path><path d="M1128.94 848.18C1141.74 865.67 1155.4 885.69 1155.4 885.69" stroke="#000000" stroke-width="4" stroke-linecap="round" stroke-linejoin="round" opacity="1" fill="none"></path><path d="M1053.57 589.6L1049.22 600.92" stroke="#000000" stroke-width="4" stroke-linecap="round" stroke-linejoin="round" opacity="1" fill="none"></path><path d="M1015.7 635.47C1018.49 633.81 1021.71 633.64 1024.76 634.51" stroke="#000000" stroke-width="4" stroke-linecap="round" stroke-linejoin="round" opacity="1" fill="none"></path><path d="M1009.96 614.23C1006.3 614.32 1006.3 619.71 1009.96 619.8 1013.62 619.71 1013.62 614.32 1009.96 614.23Z" fill="#000000" opacity="1" stroke-width="4" stroke="#000000"></path><path d="M1059.31 675.16C1063.66 672.46 1066.88 671.06 1066.88 671.06" stroke="#000000" stroke-width="4" stroke-linecap="round" stroke-linejoin="round" opacity="1" fill="none"></path><path d="M889.68 785.95C901.95 785.95 916.66 787.78 916.66 787.78" stroke="#000000" stroke-width="4" stroke-linecap="round" stroke-linejoin="round" opacity="1" fill="none"></path><path d="M890.64 799.79C898.47 799.79 914.92 801.44 914.92 801.44" stroke="#000000" stroke-width="4" stroke-linecap="round" stroke-linejoin="round" opacity="1" fill="none"></path><path d="M906.57 814.58C909.53 814.67 911.88 815.02 914.75 815.63" stroke="#000000" stroke-width="4" stroke-linecap="round" stroke-linejoin="round" opacity="1" fill="none"></path><path d="M1025.02 805.36L1024.76 826.51" stroke="#000000" stroke-width="4" stroke-linecap="round" stroke-linejoin="round" opacity="1" fill="none"></path><path d="M1210.05 729.46C1221.28 726.42 1231.03 719.63 1231.03 719.63" stroke="#000000" stroke-width="4" stroke-linecap="round" stroke-linejoin="round" opacity="1" fill="none"></path><path d="M1025.02 805.45C1024.41 805.1 1017.88 802.22 1009 798.4 1008.92 798.4 1008.83 798.48 1008.92 798.48L1024.58 826.59C1024.58 826.68 1024.76 826.68 1024.76 826.59L1025.02 805.45C1025.1 805.45 1025.1 805.45 1025.02 805.45Z" fill="#ffffff00" opacity="0" stroke-width="4" stroke="#ffffff00"></path><path d="M1063.75 642.52C1060.87 647.65 1054.26 652.7 1053.56 653.22V653.31L1059.39 660.45C1059.48 660.53 1059.57 660.45 1059.57 660.45L1063.92 642.6C1063.92 642.52 1063.83 642.43 1063.75 642.52Z" fill="#a5625000" opacity="0" stroke-width="4" stroke="#ffffff00"></path><path d="M1271.76 673.07C1260.88 644.26 1236.42 636.95 1234.68 636.43 1234.59 636.43 1234.59 636.43 1234.59 636.51 1234.42 637.99 1231.37 656.44 1221.1 666.8 1221.02 666.89 1221.1 666.97 1221.19 666.97 1245.04 661.06 1269.32 672.02 1271.67 673.15 1271.67 673.24 1271.76 673.15 1271.76 673.07Z" fill="#231f2000" opacity="0" stroke-width="4" stroke="#ffffff00"></path><path d="M1129.47 610.4C1139.91 573.5 1171.94 564.88 1176.38 563.84 1176.46 563.84 1176.46 563.67 1176.38 563.67 1141.04 558.7 1108.49 581.25 1106.58 582.99V583.07C1107.71 584.38 1127.73 608.49 1129.29 610.4 1129.29 610.49 1129.38 610.49 1129.47 610.4Z" fill="#231f2000" opacity="0" stroke-width="4" stroke="#ffffff00"></path><path d="M989.6 562.1C989.6 562.01 989.6 562.01 989.52 562.01 983.51 560.62 978.9 560.79 974.72 561.75 974.63 561.75 974.63 561.84 974.63 561.84 976.37 571.24 981.07 579.51 982.55 581.94 982.73 582.2 983.16 582.2 983.25 581.86 984.03 578.81 986.99 567.84 989.6 562.1Z" fill="#231f2000" opacity="0" stroke-width="4" stroke="#ffffff00"></path><path d="M1053.48 653.4C1061.22 647.3 1063.92 642.52 1063.92 642.52" stroke="#000000" stroke-width="4" stroke-linecap="round" stroke-linejoin="round" opacity="1" fill="none"></path><path d="M1109.7 821.11C1115.62 796.22 1116.23 786.99 1118.06 769.24" stroke="#000000" stroke-width="4" stroke-linecap="round" stroke-linejoin="round" opacity="1" fill="none"></path><path d="M1106.58 583.16L1114.32 592.56" stroke="#000000" stroke-width="4" stroke-linecap="round" stroke-linejoin="round" opacity="1" fill="none"></path><path d="M1234.6 636.51C1231.9 652.96 1226.68 658.62 1221.11 666.8" stroke="#000000" stroke-width="4" stroke-linecap="round" stroke-linejoin="round" opacity="1" fill="none"></path><path d="M989.6 562.1C987.6 567.15 985.6 572.28 983.25 581.86" stroke="#000000" stroke-width="4" stroke-linecap="round" stroke-linejoin="round" opacity="1" fill="none"></path></g><g><path d="M504.53 992.55L466.83 871.3C465.49 866.77 465.8 862.67 467.97 859.54 469.92 856.63 473.22 855.12 477.13 855.12H643.48C652.03 855.12 661.1 862.35 663.88 871.19L701.58 992.55H504.53Z" fill="#236699" opacity="1" stroke-width="4" stroke="#000000"></path><path d="M519.37 991.36L484.04 877.77H652.55L687.88 991.36H519.37Z" fill="#ff9900" opacity="1" stroke-width="4" stroke="#000000"></path><path d="M574.16 871.19C571.28 870.98 568.81 869.04 567.88 866.23 567.47 865.15 567.57 863.86 568.19 862.89 568.81 862.03 569.84 861.59 570.76 861.7 573.65 861.92 576.12 863.86 577.05 866.66 577.46 867.74 577.36 869.04 576.74 870.01 576.12 870.87 575.19 871.3 574.16 871.19Z" fill="#3c3c3c" opacity="1" stroke-width="4" stroke="#000000"></path><path d="M620.48 963.82C631.29 950.77 626.59 927.98 610.01 912.92 593.41 897.85 571.21 896.22 560.39 909.28 549.59 922.33 554.28 945.13 570.88 960.19 587.46 975.24 609.68 976.87 620.48 963.82Z" fill="#ffffff" opacity="1" stroke-width="4" stroke="#000000"></path><path d="M825.29 990.93H631.54 504.33L505.77 995.78C507.73 1002.25 513.6 1006.68 520.09 1006.68H620.72 814.47C815.71 1006.68 817.05 1006.46 818.28 1006.03 824.15 1003.87 827.35 997.19 825.29 990.93Z" fill="#236699" opacity="1" stroke-width="4" stroke="#000000"></path><path d="M520.09 1006.68C506.8 1006.79 504.02 991.04 504.02 991.04L631.54 990.93C631.95 992.12 632.15 993.41 632.15 994.6 632.15 1001.18 627.11 1006.57 620.72 1006.68H520.09Z" fill="#23669900" opacity="0" stroke-width="4" stroke="#ffffff00"></path><path d="M504.02 990.93H701.17" stroke="#000000" stroke-width="4" stroke-linecap="round" stroke-linejoin="round" opacity="1" fill="none"></path></g></svg>