<svg id="visual" viewBox="0 0 900 600" width="900" height="600" xmlns="http://www.w3.org/2000/svg" xmlns:xlink="http://www.w3.org/1999/xlink" version="1.1"><path d="M0 49L21.5 47C43 45 86 41 128.8 41C171.7 41 214.3 45 257.2 49C300 53 343 57 385.8 60C428.7 63 471.3 65 514.2 68C557 71 600 75 642.8 72C685.7 69 728.3 59 771.2 56C814 53 857 57 878.5 59L900 61L900 0L878.5 0C857 0 814 0 771.2 0C728.3 0 685.7 0 642.8 0C600 0 557 0 514.2 0C471.3 0 428.7 0 385.8 0C343 0 300 0 257.2 0C214.3 0 171.7 0 128.8 0C86 0 43 0 21.5 0L0 0Z" fill="#273e6e"></path><path d="M0 151L21.5 145C43 139 86 127 128.8 123C171.7 119 214.3 123 257.2 126C300 129 343 131 385.8 130C428.7 129 471.3 125 514.2 124C557 123 600 125 642.8 124C685.7 123 728.3 119 771.2 116C814 113 857 111 878.5 110L900 109L900 59L878.5 57C857 55 814 51 771.2 54C728.3 57 685.7 67 642.8 70C600 73 557 69 514.2 66C471.3 63 428.7 61 385.8 58C343 55 300 51 257.2 47C214.3 43 171.7 39 128.8 39C86 39 43 43 21.5 45L0 47Z" fill="#1d315b"></path><path d="M0 331L21.5 325C43 319 86 307 128.8 297C171.7 287 214.3 279 257.2 273C300 267 343 263 385.8 263C428.7 263 471.3 267 514.2 272C557 277 600 283 642.8 278C685.7 273 728.3 257 771.2 267C814 277 857 313 878.5 331L900 349L900 107L878.5 108C857 109 814 111 771.2 114C728.3 117 685.7 121 642.8 122C600 123 557 121 514.2 122C471.3 123 428.7 127 385.8 128C343 129 300 127 257.2 124C214.3 121 171.7 117 128.8 121C86 125 43 137 21.5 143L0 149Z" fill="#142548"></path><path d="M0 391L21.5 388C43 385 86 379 128.8 382C171.7 385 214.3 397 257.2 394C300 391 343 373 385.8 371C428.7 369 471.3 383 514.2 394C557 405 600 413 642.8 400C685.7 387 728.3 353 771.2 358C814 363 857 407 878.5 429L900 451L900 347L878.5 329C857 311 814 275 771.2 265C728.3 255 685.7 271 642.8 276C600 281 557 275 514.2 270C471.3 265 428.7 261 385.8 261C343 261 300 265 257.2 271C214.3 277 171.7 285 128.8 295C86 305 43 317 21.5 323L0 329Z" fill="#0e1e3c"></path><path d="M0 463L21.5 460C43 457 86 451 128.8 450C171.7 449 214.3 453 257.2 451C300 449 343 441 385.8 441C428.7 441 471.3 449 514.2 455C557 461 600 465 642.8 456C685.7 447 728.3 425 771.2 429C814 433 857 463 878.5 478L900 493L900 449L878.5 427C857 405 814 361 771.2 356C728.3 351 685.7 385 642.8 398C600 411 557 403 514.2 392C471.3 381 428.7 367 385.8 369C343 371 300 389 257.2 392C214.3 395 171.7 383 128.8 380C86 377 43 383 21.5 386L0 389Z" fill="#0e1b35"></path><path d="M0 601L21.5 601C43 601 86 601 128.8 601C171.7 601 214.3 601 257.2 601C300 601 343 601 385.8 601C428.7 601 471.3 601 514.2 601C557 601 600 601 642.8 601C685.7 601 728.3 601 771.2 601C814 601 857 601 878.5 601L900 601L900 491L878.5 476C857 461 814 431 771.2 427C728.3 423 685.7 445 642.8 454C600 463 557 459 514.2 453C471.3 447 428.7 439 385.8 439C343 439 300 447 257.2 449C214.3 451 171.7 447 128.8 448C86 449 43 455 21.5 458L0 461Z" fill="#0d192f"></path></svg>