<svg id="visual" viewBox="0 0 960 540" width="960" height="540" xmlns="http://www.w3.org/2000/svg" xmlns:xlink="http://www.w3.org/1999/xlink" version="1.1"><path d="M0 77L11.5 86C23 95 46 113 68.8 127.3C91.7 141.7 114.3 152.3 137.2 151.3C160 150.3 183 137.7 205.8 135C228.7 132.3 251.3 139.7 274.2 129.8C297 120 320 93 342.8 84.8C365.7 76.7 388.3 87.3 411.2 90.8C434 94.3 457 90.7 480 98.8C503 107 526 127 548.8 134.3C571.7 141.7 594.3 136.3 617.2 139C640 141.7 663 152.3 685.8 158.5C708.7 164.7 731.3 166.3 754.2 154.7C777 143 800 118 822.8 119C845.7 120 868.3 147 891.2 157.8C914 168.7 937 163.3 948.5 160.7L960 158L960 0L948.5 0C937 0 914 0 891.2 0C868.3 0 845.7 0 822.8 0C800 0 777 0 754.2 0C731.3 0 708.7 0 685.8 0C663 0 640 0 617.2 0C594.3 0 571.7 0 548.8 0C526 0 503 0 480 0C457 0 434 0 411.2 0C388.3 0 365.7 0 342.8 0C320 0 297 0 274.2 0C251.3 0 228.7 0 205.8 0C183 0 160 0 137.2 0C114.3 0 91.7 0 68.8 0C46 0 23 0 11.5 0L0 0Z" fill="#365586"></path><path d="M0 98L11.5 107C23 116 46 134 68.8 155.7C91.7 177.3 114.3 202.7 137.2 202.7C160 202.7 183 177.3 205.8 168.3C228.7 159.3 251.3 166.7 274.2 162.2C297 157.7 320 141.3 342.8 131.3C365.7 121.3 388.3 117.7 411.2 121.3C434 125 457 136 480 147.8C503 159.7 526 172.3 548.8 175.8C571.7 179.3 594.3 173.7 617.2 180.8C640 188 663 208 685.8 219.8C708.7 231.7 731.3 235.3 754.2 220.8C777 206.3 800 173.7 822.8 165.5C845.7 157.3 868.3 173.7 891.2 181.8C914 190 937 190 948.5 190L960 190L960 156L948.5 158.7C937 161.3 914 166.7 891.2 155.8C868.3 145 845.7 118 822.8 117C800 116 777 141 754.2 152.7C731.3 164.3 708.7 162.7 685.8 156.5C663 150.3 640 139.7 617.2 137C594.3 134.3 571.7 139.7 548.8 132.3C526 125 503 105 480 96.8C457 88.7 434 92.3 411.2 88.8C388.3 85.3 365.7 74.7 342.8 82.8C320 91 297 118 274.2 127.8C251.3 137.7 228.7 130.3 205.8 133C183 135.7 160 148.3 137.2 149.3C114.3 150.3 91.7 139.7 68.8 125.3C46 111 23 93 11.5 84L0 75Z" fill="#2f4d7d"></path><path d="M0 239L11.5 245.2C23 251.3 46 263.7 68.8 271.7C91.7 279.7 114.3 283.3 137.2 281.7C160 280 183 273 205.8 266.7C228.7 260.3 251.3 254.7 274.2 255.5C297 256.3 320 263.7 342.8 274.5C365.7 285.3 388.3 299.7 411.2 293.3C434 287 457 260 480 248.3C503 236.7 526 240.3 548.8 246.7C571.7 253 594.3 262 617.2 270.2C640 278.3 663 285.7 685.8 291C708.7 296.3 731.3 299.7 754.2 291.5C777 283.3 800 263.7 822.8 252C845.7 240.3 868.3 236.7 891.2 235.8C914 235 937 237 948.5 238L960 239L960 188L948.5 188C937 188 914 188 891.2 179.8C868.3 171.7 845.7 155.3 822.8 163.5C800 171.7 777 204.3 754.2 218.8C731.3 233.3 708.7 229.7 685.8 217.8C663 206 640 186 617.2 178.8C594.3 171.7 571.7 177.3 548.8 173.8C526 170.3 503 157.7 480 145.8C457 134 434 123 411.2 119.3C388.3 115.7 365.7 119.3 342.8 129.3C320 139.3 297 155.7 274.2 160.2C251.3 164.7 228.7 157.3 205.8 166.3C183 175.3 160 200.7 137.2 200.7C114.3 200.7 91.7 175.3 68.8 153.7C46 132 23 114 11.5 105L0 96Z" fill="#284573"></path><path d="M0 293L11.5 298.3C23 303.7 46 314.3 68.8 328.7C91.7 343 114.3 361 137.2 355.7C160 350.3 183 321.7 205.8 318C228.7 314.3 251.3 335.7 274.2 351.8C297 368 320 379 342.8 380.8C365.7 382.7 388.3 375.3 411.2 361.8C434 348.3 457 328.7 480 319.7C503 310.7 526 312.3 548.8 323.2C571.7 334 594.3 354 617.2 357.7C640 361.3 663 348.7 685.8 343.2C708.7 337.7 731.3 339.3 754.2 338.3C777 337.3 800 333.7 822.8 322.8C845.7 312 868.3 294 891.2 294C914 294 937 312 948.5 321L960 330L960 237L948.5 236C937 235 914 233 891.2 233.8C868.3 234.7 845.7 238.3 822.8 250C800 261.7 777 281.3 754.2 289.5C731.3 297.7 708.7 294.3 685.8 289C663 283.7 640 276.3 617.2 268.2C594.3 260 571.7 251 548.8 244.7C526 238.3 503 234.7 480 246.3C457 258 434 285 411.2 291.3C388.3 297.7 365.7 283.3 342.8 272.5C320 261.7 297 254.3 274.2 253.5C251.3 252.7 228.7 258.3 205.8 264.7C183 271 160 278 137.2 279.7C114.3 281.3 91.7 277.7 68.8 269.7C46 261.7 23 249.3 11.5 243.2L0 237Z" fill="#203d6a"></path><path d="M0 330L11.5 335.5C23 341 46 352 68.8 363.8C91.7 375.7 114.3 388.3 137.2 381.2C160 374 183 347 205.8 341.5C228.7 336 251.3 352 274.2 368.2C297 384.3 320 400.7 342.8 405.2C365.7 409.7 388.3 402.3 411.2 389.7C434 377 457 359 480 351C503 343 526 345 548.8 353.2C571.7 361.3 594.3 375.7 617.2 381C640 386.3 663 382.7 685.8 380C708.7 377.3 731.3 375.7 754.2 373.8C777 372 800 370 822.8 357.3C845.7 344.7 868.3 321.3 891.2 322.3C914 323.3 937 348.7 948.5 361.3L960 374L960 328L948.5 319C937 310 914 292 891.2 292C868.3 292 845.7 310 822.8 320.8C800 331.7 777 335.3 754.2 336.3C731.3 337.3 708.7 335.7 685.8 341.2C663 346.7 640 359.3 617.2 355.7C594.3 352 571.7 332 548.8 321.2C526 310.3 503 308.7 480 317.7C457 326.7 434 346.3 411.2 359.8C388.3 373.3 365.7 380.7 342.8 378.8C320 377 297 366 274.2 349.8C251.3 333.7 228.7 312.3 205.8 316C183 319.7 160 348.3 137.2 353.7C114.3 359 91.7 341 68.8 326.7C46 312.3 23 301.7 11.5 296.3L0 291Z" fill="#193661"></path><path d="M0 406L11.5 407.8C23 409.7 46 413.3 68.8 416C91.7 418.7 114.3 420.3 137.2 414C160 407.7 183 393.3 205.8 400.5C228.7 407.7 251.3 436.3 274.2 448C297 459.7 320 454.3 342.8 451.7C365.7 449 388.3 449 411.2 444.5C434 440 457 431 480 426.5C503 422 526 422 548.8 421.2C571.7 420.3 594.3 418.7 617.2 420.5C640 422.3 663 427.7 685.8 432.2C708.7 436.7 731.3 440.3 754.2 438.5C777 436.7 800 429.3 822.8 415.8C845.7 402.3 868.3 382.7 891.2 385.3C914 388 937 413 948.5 425.5L960 438L960 372L948.5 359.3C937 346.7 914 321.3 891.2 320.3C868.3 319.3 845.7 342.7 822.8 355.3C800 368 777 370 754.2 371.8C731.3 373.7 708.7 375.3 685.8 378C663 380.7 640 384.3 617.2 379C594.3 373.7 571.7 359.3 548.8 351.2C526 343 503 341 480 349C457 357 434 375 411.2 387.7C388.3 400.3 365.7 407.7 342.8 403.2C320 398.7 297 382.3 274.2 366.2C251.3 350 228.7 334 205.8 339.5C183 345 160 372 137.2 379.2C114.3 386.3 91.7 373.7 68.8 361.8C46 350 23 339 11.5 333.5L0 328Z" fill="#14315a"></path><path d="M0 428L11.5 432.5C23 437 46 446 68.8 446.8C91.7 447.7 114.3 440.3 137.2 434C160 427.7 183 422.3 205.8 429.5C228.7 436.7 251.3 456.3 274.2 465.3C297 474.3 320 472.7 342.8 472.7C365.7 472.7 388.3 474.3 411.2 468C434 461.7 457 447.3 480 442.8C503 438.3 526 443.7 548.8 445.5C571.7 447.3 594.3 445.7 617.2 447.5C640 449.3 663 454.7 685.8 460C708.7 465.3 731.3 470.7 754.2 469.8C777 469 800 462 822.8 446.7C845.7 431.3 868.3 407.7 891.2 408.5C914 409.3 937 434.7 948.5 447.3L960 460L960 436L948.5 423.5C937 411 914 386 891.2 383.3C868.3 380.7 845.7 400.3 822.8 413.8C800 427.3 777 434.7 754.2 436.5C731.3 438.3 708.7 434.7 685.8 430.2C663 425.7 640 420.3 617.2 418.5C594.3 416.7 571.7 418.3 548.8 419.2C526 420 503 420 480 424.5C457 429 434 438 411.2 442.5C388.3 447 365.7 447 342.8 449.7C320 452.3 297 457.7 274.2 446C251.3 434.3 228.7 405.7 205.8 398.5C183 391.3 160 405.7 137.2 412C114.3 418.3 91.7 416.7 68.8 414C46 411.3 23 407.7 11.5 405.8L0 404Z" fill="#132e55"></path><path d="M0 476L11.5 476C23 476 46 476 68.8 472.5C91.7 469 114.3 462 137.2 457.5C160 453 183 451 205.8 460.8C228.7 470.7 251.3 492.3 274.2 499.5C297 506.7 320 499.3 342.8 494.8C365.7 490.3 388.3 488.7 411.2 482.5C434 476.3 457 465.7 480 465.7C503 465.7 526 476.3 548.8 478C571.7 479.7 594.3 472.3 617.2 473.2C640 474 663 483 685.8 489.3C708.7 495.7 731.3 499.3 754.2 494.8C777 490.3 800 477.7 822.8 466.8C845.7 456 868.3 447 891.2 452.5C914 458 937 478 948.5 488L960 498L960 458L948.5 445.3C937 432.7 914 407.3 891.2 406.5C868.3 405.7 845.7 429.3 822.8 444.7C800 460 777 467 754.2 467.8C731.3 468.7 708.7 463.3 685.8 458C663 452.7 640 447.3 617.2 445.5C594.3 443.7 571.7 445.3 548.8 443.5C526 441.7 503 436.3 480 440.8C457 445.3 434 459.7 411.2 466C388.3 472.3 365.7 470.7 342.8 470.7C320 470.7 297 472.3 274.2 463.3C251.3 454.3 228.7 434.7 205.8 427.5C183 420.3 160 425.7 137.2 432C114.3 438.3 91.7 445.7 68.8 444.8C46 444 23 435 11.5 430.5L0 426Z" fill="#122b4f"></path><path d="M0 487L11.5 490.7C23 494.3 46 501.7 68.8 500.8C91.7 500 114.3 491 137.2 488.2C160 485.3 183 488.7 205.8 495.8C228.7 503 251.3 514 274.2 515.8C297 517.7 320 510.3 342.8 506.7C365.7 503 388.3 503 411.2 499.5C434 496 457 489 480 490C503 491 526 500 548.8 499C571.7 498 594.3 487 617.2 489.7C640 492.3 663 508.7 685.8 515.8C708.7 523 731.3 521 754.2 514.7C777 508.3 800 497.7 822.8 492.3C845.7 487 868.3 487 891.2 490.7C914 494.3 937 501.7 948.5 505.3L960 509L960 496L948.5 486C937 476 914 456 891.2 450.5C868.3 445 845.7 454 822.8 464.8C800 475.7 777 488.3 754.2 492.8C731.3 497.3 708.7 493.7 685.8 487.3C663 481 640 472 617.2 471.2C594.3 470.3 571.7 477.7 548.8 476C526 474.3 503 463.7 480 463.7C457 463.7 434 474.3 411.2 480.5C388.3 486.7 365.7 488.3 342.8 492.8C320 497.3 297 504.7 274.2 497.5C251.3 490.3 228.7 468.7 205.8 458.8C183 449 160 451 137.2 455.5C114.3 460 91.7 467 68.8 470.5C46 474 23 474 11.5 474L0 474Z" fill="#112949"></path><path d="M0 541L11.5 541C23 541 46 541 68.8 541C91.7 541 114.3 541 137.2 541C160 541 183 541 205.8 541C228.7 541 251.3 541 274.2 541C297 541 320 541 342.8 541C365.7 541 388.3 541 411.2 541C434 541 457 541 480 541C503 541 526 541 548.8 541C571.7 541 594.3 541 617.2 541C640 541 663 541 685.8 541C708.7 541 731.3 541 754.2 541C777 541 800 541 822.8 541C845.7 541 868.3 541 891.2 541C914 541 937 541 948.5 541L960 541L960 507L948.5 503.3C937 499.7 914 492.3 891.2 488.7C868.3 485 845.7 485 822.8 490.3C800 495.7 777 506.3 754.2 512.7C731.3 519 708.7 521 685.8 513.8C663 506.7 640 490.3 617.2 487.7C594.3 485 571.7 496 548.8 497C526 498 503 489 480 488C457 487 434 494 411.2 497.5C388.3 501 365.7 501 342.8 504.7C320 508.3 297 515.7 274.2 513.8C251.3 512 228.7 501 205.8 493.8C183 486.7 160 483.3 137.2 486.2C114.3 489 91.7 498 68.8 498.8C46 499.7 23 492.3 11.5 488.7L0 485Z" fill="#102644"></path></svg>